<?xml version="1.0" standalone="no"?>
<!DOCTYPE svg PUBLIC "-//W3C//DTD SVG 1.1//EN" "http://www.w3.org/Graphics/SVG/1.1/DTD/svg11.dtd" >
<svg xmlns="http://www.w3.org/2000/svg">
<metadata>Generated by IcoMoon</metadata>
<defs>
<font id="icomoon" horiz-adv-x="1024">
<font-face units-per-em="1024" ascent="960" descent="-64" />
<missing-glyph horiz-adv-x="1024" />
<glyph unicode="&#x20;" horiz-adv-x="512" d="" />
<glyph unicode="&#xe900;" glyph-name="test" horiz-adv-x="512" d="M384 64c-16.376 0-32.76 6.25-45.24 18.75l-320 320c-25 25-25 65.5 0 90.5l320 320c25 25 65.5 25 90.5 0s25-65.5 0-90.5l-274.76-274.75 274.8-274.8c25-25 25-65.5 0-90.5-12.5-12.5-28.9-18.7-45.3-18.7z" />
<glyph unicode="&#xe901;" glyph-name="align-center" horiz-adv-x="896" d="M640 768h-384c-35.4 0-64 28.66-64 64s28.6 64 64 64h384c35.4 0 64-28.66 64-64s-28.6-64-64-64zM832 512h-768c-35.34 0-64 28.6-64 64s28.66 64 64 64h768c35.4 0 64-28.6 64-64s-28.6-64-64-64zM0 64c0 35.4 28.66 64 64 64h768c35.4 0 64-28.6 64-64s-28.6-64-64-64h-768c-35.34 0-64 28.6-64 64zM640 256h-384c-35.4 0-64 28.6-64 64s28.6 64 64 64h384c35.4 0 64-28.6 64-64s-28.6-64-64-64z" />
<glyph unicode="&#xe902;" glyph-name="align-justify" horiz-adv-x="896" d="M832 768h-768c-35.34 0-64 28.66-64 64s28.66 64 64 64h768c35.4 0 64-28.66 64-64s-28.6-64-64-64zM832 256h-768c-35.34 0-64 28.6-64 64s28.66 64 64 64h768c35.4 0 64-28.6 64-64s-28.6-64-64-64zM0 576c0 35.4 28.66 64 64 64h768c35.4 0 64-28.6 64-64s-28.6-64-64-64h-768c-35.34 0-64 28.6-64 64zM832 0h-768c-35.34 0-64 28.6-64 64s28.66 64 64 64h768c35.4 0 64-28.6 64-64s-28.6-64-64-64z" />
<glyph unicode="&#xe903;" glyph-name="align-left" horiz-adv-x="896" d="M512 768h-448c-35.34 0-64 28.66-64 64s28.66 64 64 64h448c35.4 0 64-28.66 64-64s-28.6-64-64-64zM512 256h-448c-35.34 0-64 28.6-64 64s28.66 64 64 64h448c35.4 0 64-28.6 64-64s-28.6-64-64-64zM0 576c0 35.4 28.66 64 64 64h768c35.4 0 64-28.6 64-64s-28.6-64-64-64h-768c-35.34 0-64 28.6-64 64zM832 0h-768c-35.34 0-64 28.6-64 64s28.66 64 64 64h768c35.4 0 64-28.6 64-64s-28.6-64-64-64z" />
<glyph unicode="&#xe904;" glyph-name="align-right" horiz-adv-x="896" d="M832 768h-448c-35.4 0-64 28.66-64 64s28.6 64 64 64h448c35.4 0 64-28.66 64-64s-28.6-64-64-64zM832 256h-448c-35.4 0-64 28.6-64 64s28.6 64 64 64h448c35.4 0 64-28.6 64-64s-28.6-64-64-64zM0 576c0 35.4 28.66 64 64 64h768c35.4 0 64-28.6 64-64s-28.6-64-64-64h-768c-35.34 0-64 28.6-64 64zM832 0h-768c-35.34 0-64 28.6-64 64s28.66 64 64 64h768c35.4 0 64-28.6 64-64s-28.6-64-64-64z" />
<glyph unicode="&#xe905;" glyph-name="angle-down" horiz-adv-x="768" d="M384 192c-16.376 0-32.76 6.25-45.24 18.75l-320 320c-25 25-25 65.5 0 90.5s65.5 25 90.5 0l274.74-274.85 274.8 274.8c25 25 65.5 25 90.5 0s25-65.5 0-90.5l-320-320c-12.5-12.5-28.9-18.7-45.3-18.7z" />
<glyph unicode="&#xe906;" glyph-name="angle-left" horiz-adv-x="512" d="M384 64c-16.376 0-32.76 6.25-45.24 18.75l-320 320c-25 25-25 65.5 0 90.5l320 320c25 25 65.5 25 90.5 0s25-65.5 0-90.5l-274.76-274.75 274.8-274.8c25-25 25-65.5 0-90.5-12.5-12.5-28.9-18.7-45.3-18.7z" />
<glyph unicode="&#xe907;" glyph-name="angle-right" horiz-adv-x="512" d="M128 64c-16.376 0-32.76 6.25-45.24 18.75-25 25-25 65.5 0 90.5l274.84 274.75-274.84 274.8c-25 25-25 65.5 0 90.5s65.5 25 90.5 0l320-320c25-25 25-65.5 0-90.5l-320-320c-12.5-12.6-28.88-18.8-45.26-18.8z" />
<glyph unicode="&#xe908;" glyph-name="angles-down" horiz-adv-x="768" d="M338.8 402.8c12.4-12.6 28.8-18.8 45.2-18.8s32.76 6.25 45.24 18.75l320 320c25 25 25 65.5 0 90.5s-65.5 25-90.5 0l-274.74-274.85-274.74 274.84c-25 25-65.5 25-90.5 0s-25-65.5 0-90.5l320.040-319.94zM658.8 429.2l-274.8-274.8-274.74 274.8c-25 25-65.5 25-90.5 0s-25-65.5 0-90.5l320-320c12.44-12.5 28.84-18.7 45.24-18.7s32.76 6.25 45.24 18.75l320 320c25 25 25 65.5 0 90.5s-65.44 24.95-90.44-0.050z" />
<glyph unicode="&#xe909;" glyph-name="angles-left" horiz-adv-x="896" d="M154.5 448l274.8 274.8c25 25 25 65.5 0 90.5s-65.5 25-90.5 0l-320-320c-25-25-25-65.5 0-90.5l320-320c12.4-12.6 28.8-18.8 45.2-18.8s32.76 6.25 45.24 18.75c25 25 25 65.5 0 90.5l-274.74 274.75zM538.6 448l274.8 274.8c25 25 25 65.5 0 90.5s-65.5 25-90.5 0l-320-320c-25-25-25-65.5 0-90.5l320-320c12.3-12.6 28.7-18.8 45.1-18.8s32.76 6.25 45.24 18.75c25 25 25 65.5 0 90.5l-274.64 274.75z" />
<glyph unicode="&#xe90a;" glyph-name="angles-right" horiz-adv-x="896" d="M493.2 493.2l-320 320c-25 25-65.5 25-90.5 0s-25-65.5 0-90.5l274.9-274.7-274.8-274.8c-25-25-25-65.5 0-90.5 12.46-12.5 28.82-18.7 45.2-18.7s32.76 6.25 45.24 18.75l320 320c24.96 25.050 24.96 65.45-0.040 90.45zM877.2 493.2l-320 320c-25 25-65.5 25-90.5 0s-25-65.5 0-90.5l274.9-274.7-274.8-274.8c-25-25-25-65.5 0-90.5 12.4-12.5 28.8-18.7 45.2-18.7s32.76 6.25 45.24 18.75l320 320c24.96 25.050 24.96 65.45-0.040 90.45z" />
<glyph unicode="&#xe90b;" glyph-name="angles-up" horiz-adv-x="768" d="M109.26 466.8l274.74 274.6 274.8-274.8c12.4-12.4 28.8-18.6 45.2-18.6s32.76 6.25 45.24 18.75c25 25 25 65.5 0 90.5l-320 320c-25 25-65.5 25-90.5 0l-320-320c-25-25-25-65.5 0-90.5s65.52-24.95 90.52 0.050zM429.2 493.2c-25 25-65.5 25-90.5 0l-320-320c-25-25-25-65.5 0-90.5s65.5-25 90.5 0l274.8 274.7 274.8-274.8c12.4-12.4 28.8-18.6 45.2-18.6s32.76 6.25 45.24 18.75c25 25 25 65.5 0 90.5l-320.040 319.95z" />
<glyph unicode="&#xe90c;" glyph-name="angle-up" horiz-adv-x="768" d="M704 256c-16.376 0-32.76 6.25-45.24 18.75l-274.76 274.65-274.8-274.8c-25-25-65.5-25-90.5 0s-25 65.5 0 90.5l320 320c25 25 65.5 25 90.5 0l320-320c25-25 25-65.5 0-90.5-12.4-12.4-28.8-18.6-45.2-18.6z" />
<glyph unicode="&#xe90d;" glyph-name="arrow-down" horiz-adv-x="768" d="M749.2 338.8l-320-320c-12.4-12.6-28.8-18.8-45.2-18.8s-32.76 6.25-45.24 18.75l-320 320c-25 25-25 65.5 0 90.5s65.5 25 90.5 0l210.74-210.85v613.6c0 35.38 28.66 62.2 62.2 62.2s65.8-26.82 65.8-62.2v-613.6l210.8 210.8c25 25 65.5 25 90.5 0s24.9-65.4-0.1-90.4z" />
<glyph unicode="&#xe90e;" glyph-name="arrow-down-long" horiz-adv-x="640" d="M18.75 301.2c25.020 25.020 65.52 24.98 90.5 0l146.75-146.8v741.6c0 35.38 28.62 64 64 64s64-28.62 64-64v-741.6l146.76 146.76c25 25 65.5 25 90.5 0s25-65.5 0-90.5l-256-256c-25-25-65.5-25-90.5 0l-256 256c-25.010 25.14-25.010 65.54-0.010 90.54z" />
<glyph unicode="&#xe90f;" glyph-name="arrow-down-short-wide" horiz-adv-x="1152" d="M640 512h192c35.34 0 64 28.66 64 64s-28.66 64-64 64h-190.2c-35.34 0-64-28.66-64-64s26.8-64 62.2-64zM640 256h320c35.34 0 64 28.66 64 64s-28.66 64-64 64h-318.2c-35.34 0-64-28.66-64-64s26.8-64 62.2-64zM640 768h64c35.34 0 62.2 28.66 62.2 64s-28.66 64-62.2 64h-64c-35.34 0-64-28.66-64-64s28.6-64 64-64zM1088 128h-446.2c-35.34 0-64-28.66-64-64s28.66-64 64-64h446.2c35.34 0 64 28.66 64 64s-28.6 64-64 64zM384.8 298.6l-64.8-70.8v604.14c0 35.4-28.6 64.060-64 64.060s-64-28.66-64-64.060v-604l-64.8 70.66c-12.624 13.766-29.88 20.76-47.22 20.76-15.438 0-30.94-5.562-43.22-16.828-26.060-23.9-27.8-64.44-3.938-90.54l174.2-192.18c24.24-26.52 70.12-26.52 94.38 0l174.2 192.18c23.88 26.1 22.12 66.62-3.938 90.54-22.464 23.868-62.864 22.068-86.864-3.932z" />
<glyph unicode="&#xe910;" glyph-name="arrow-down-up-across-line" horiz-adv-x="1152" d="M82.74 146.8c-24.98 25-24.98 65.4 0 90.4 25 25 65.52 25 90.52 0l82.74-82.6v231.2h-192c-35.34 0-64 26.8-64 64 0 33.6 28.66 64 64 64h704v227.6l-82.8-82.6c-25-25-65.4-25-90.4 0s-25 65.4 0 90.4l192 192.056c25 24.992 65.4 24.992 90.4 0l192-192.056c25-25 25-65.4 0-90.4s-65.4-25-90.4 0l-82.8 82.6v-227.6h192c35.4 0 64-30.4 64-64 0-37.2-28.6-64-64-64h-704v-231.2l82.8 82.6c25 25 65.4 25 90.4 0s25-65.4 0-90.4l-192-192c-25-25-65.4-25-90.4 0l-192.060 192zM256 833.8c0 33.54 28.6 64 64 64s64-30.46 64-64v-256h-128v256zM896 321.8v-257.8c0-35.4-28.6-64-64-64s-64 28.6-64 64v257.8h128z" />
<glyph unicode="&#xe911;" glyph-name="arrow-down-up-lock" horiz-adv-x="1280" d="M210.8-45.2l-192.054 192c-24.994 25-24.994 65.4 0 90.4s65.514 25 90.514 0l82.74-82.6v231.2h-128c-35.34 0-64 26.8-64 64 0 33.6 28.66 64 64 64h512v227.6l-82.8-82.6c-25-25-65.4-25-90.4 0s-25 65.4 0 90.4l192 192.056c12 12.002 28.2 18.744 45.2 18.744s33.2-6.744 45.2-18.744l192-192.056c25-25 25-65.4 0-90.4s-65.4-25-90.4 0l-82.8 82.6v-227.6h149.6c-13.8-30.8-21.6-63.4-21.6-96v-32h-512v-231.2l82.8 82.6c25 25 65.4 25 90.4 0s25-65.4 0-90.4l-192-192c-25-25-65.4-25-90.4 0v0zM192 577.8v256c0 33.54 28.6 64 64 64s64-30.46 64-64v-256h-128zM704 321.8v-257.8c0-35.4-28.6-64-64-64s-64 28.6-64 64v257.8h128zM1056 577.8c88.4 0 160-73.4 160-160v-96c35.4 0 64-30.4 64-65.8v-256c0-35.4-28.6-64-64-64h-320c-35.4 0-64 28.6-64 64v256c0 35.4 28.6 65.8 64 65.8v96c0 86.6 71.6 160 160 160zM1056 481.8c-35.4 0-64-30.4-64-64v-96h128v96c0 33.6-28.6 64-64 64z" />
<glyph unicode="&#xe912;" glyph-name="arrow-down-wide-short" horiz-adv-x="1152" d="M832 384h-190.2c-35.34 0-64-28.66-64-64s28.66-64 64-64h190.2c35.34 0 64 28.66 64 64s-28.6 64-64 64zM1088 896h-446.2c-35.34 0-64-28.66-64-64s28.66-64 64-64h446.2c35.34 0 64 28.66 64 64s-28.6 64-64 64zM704 128h-64c-35.34 0-64-28.66-64-64s28.66-64 64-64h64c35.34 0 62.2 28.66 62.2 64s-26.8 64-62.2 64zM960 640h-318.2c-35.34 0-64-28.66-64-64s28.66-64 64-64h318.2c35.34 0 64 28.66 64 64s-28.6 64-64 64zM384.8 298.6l-64.8-70.8v604.14c0 35.4-28.6 64.060-64 64.060s-64-28.66-64-64.060v-604l-64.8 70.66c-12.624 13.766-29.88 20.76-47.22 20.76-15.438 0-30.94-5.562-43.22-16.828-26.060-23.9-27.8-64.44-3.938-90.54l174.2-192.18c24.24-26.52 70.12-26.52 94.38 0l174.2 192.18c23.88 26.1 22.12 66.62-3.938 90.54-22.464 23.868-62.864 22.068-86.864-3.932z" />
<glyph unicode="&#xe913;" glyph-name="arrow-down-z-a" d="M208.8 19.8c24.24-26.52 70.12-26.52 94.38 0l174.2 192.18c23.88 26.1 22.12 66.62-3.938 90.54-26.040 23.9-66.54 22.080-90.44-3.946l-63.002-70.774v604.14c0 35.4-28.66 64.060-64 64.060s-64-28.66-64-64.060v-604l-64.8 70.78c-12.624 13.766-29.88 20.78-47.22 20.78-15.438 0-30.94-5.57-43.22-16.828-26.060-23.9-27.8-64.44-3.938-90.54l175.978-192.332zM640 768h101.5l-146.76-146.76c-18.312-18.312-23.78-45.82-13.876-69.76s33.26-39.48 59.12-39.48h254.2c37.216 1.8 65.816 28.6 65.816 64s-28.66 64-64 64h-101.5l146.76 146.76c18.312 18.312 23.78 45.82 13.876 69.76s-33.336 39.48-60.936 39.48h-254.2c-35.4 0-64-28.62-64-64s28.6-64 64-64zM985.2 93.4l-159.98 320.2c-21.68 43.62-92.8 43.62-114.48 0l-159.98-320.2c-15.812-31.82-3-70.48 28.62-86.38 31.74-15.844 70.080-2.954 85.86 28.8l14.308 28.78h176.86l14.308-28.78c12.348-24.86 47.94-47.74 85.86-28.8 31.624 15.78 44.424 54.58 28.624 86.38zM735.6 177.2l32.4 65.4 32.44-65.26h-64.84z" />
<glyph unicode="&#xe914;" glyph-name="arrow-left" horiz-adv-x="896" d="M894.2 448c0-35.4-26.8-64-62.2-64h-613.4l210.8-210.8c25-25 25-65.5 0-90.5-12.6-12.5-29-18.7-45.4-18.7s-32.76 6.25-45.24 18.75l-320 320c-25 25-25 65.5 0 90.5l320 320c25 25 65.5 25 90.5 0s25-65.5 0-90.5l-210.66-210.75h613.4c35.4 0 62.2-28.6 62.2-64z" />
<glyph unicode="&#xe915;" glyph-name="arrow-left-long" d="M18.75 493.2l256 256c25 25 65.5 25 90.5 0s25-65.5 0-90.5l-146.65-146.7h741.4c35.38 0 64-28.62 64-64s-28.62-64-64-64h-741.4l146.76-146.76c25-25 25-65.5 0-90.5-24.98-24.98-65.48-25.020-90.5 0l-256 256c-25.11 25.060-25.11 65.46-0.11 90.46z" />
<glyph unicode="&#xe916;" glyph-name="arrow-pointer" horiz-adv-x="640" d="M636.8 351c-7.062-18.688-24.94-31.040-44.9-31.040h-210l90.3-189.64c18.992-39.88 2.062-87.6-37.82-106.62-39.9-19.008-87.64-2.070-106.64 37.82l-93.14 195.88-150-176.5c-9.282-10.938-22.74-16.906-36.56-16.906-5.562 0-11.156 0.969-16.562 2.938-18.916 6.868-31.478 24.868-31.478 46.868v734.16c0 18.876 11.062 36.060 28.24 43.82 17.26 7.7 37.42 4.68 51.5-7.76l542.2-480c16.86-13.22 20.26-34.22 14.86-53.020z" />
<glyph unicode="&#xe917;" glyph-name="arrow-right" horiz-adv-x="896" d="M877.2 402.8l-320-320c-12.4-12.6-28.8-18.8-45.2-18.8s-32.76 6.25-45.24 18.75c-25 25-25 65.5 0 90.5l210.84 210.75h-613.6c-35.34 0-63.997 28.6-63.997 64s28.657 64 63.997 64h613.6l-210.8 210.8c-25 25-25 65.5 0 90.5s65.5 25 90.5 0l320-320c24.9-25.1 24.9-65.5-0.1-90.5z" />
<glyph unicode="&#xe918;" glyph-name="arrow-right-arrow-left" d="M64 608h741.6l-114.76-114.76c-25-25-25-65.5 0-90.5 12.36-12.54 28.76-18.74 45.16-18.74s32.76 6.25 45.24 18.75l224 224c25 25 25 65.5 0 90.5l-224 224c-25 25-65.5 25-90.5 0s-25-65.5 0-90.5l114.86-114.75h-741.6c-35.38 0-64-28.62-64-64s28.62-64 64-64zM960 288h-741.4l114.76 114.76c25 25 25 65.5 0 90.5s-65.5 25-90.5 0l-224-224c-25-25-25-65.5 0-90.5l224-224c12.34-12.56 28.74-18.76 45.14-18.76s32.76 6.25 45.24 18.75c25 25 25 65.5 0 90.5l-114.64 114.75h741.4c35.38 0 64 28.62 64 64s-28.6 64-64 64z" />
<glyph unicode="&#xe919;" glyph-name="arrow-right-from-bracket" d="M320 128h-128c-35.34 0-64 28.66-64 64v512c0 35.34 28.66 64 64 64h128c35.34 0 64 28.66 64 64s-28.6 64-64 64h-128c-106.040 0-192-85.96-192-192v-512c0-106.040 85.96-192 192-192h128c35.34 0 64 28.66 64 64s-28.6 64-64 64zM1005.2 493.2l-256 256c-25.020 25.020-65.52 24.98-90.5 0-25-25-25-65.5 0-90.5l146.9-146.7h-421.6c-35.4 0-64-28.6-64-64s28.62-64 64-64h421.6l-146.76-146.76c-25-25-25-65.5 0-90.5s65.5-25 90.5 0l256 256c24.86 25.060 24.86 65.46-0.14 90.46z" />
<glyph unicode="&#xe91a;" glyph-name="arrow-right-long" d="M1005.2 402.8l-256-256c-25.020-25.020-65.52-24.98-90.5 0-25 25-25 65.5 0 90.5l146.9 146.7h-741.6c-35.38 0-64 28.6-64 65.8s28.62 62.2 64 62.2h741.6l-146.76 146.76c-25 25-25 65.5 0 90.5s65.5 25 90.5 0l256-256c24.86-25.060 24.86-65.46-0.14-90.46z" />
<glyph unicode="&#xe91b;" glyph-name="arrow-right-to-bracket" d="M832 896h-128c-35.34 0-64-28.66-64-64s28.66-64 64-64h128c35.34 0 64-28.66 64-64v-512c0-35.34-28.66-64-64-64h-128c-35.34 0-64-28.66-64-64s28.66-64 64-64h128c106.040 0 192 85.96 192 192v512c0 106.040-86 192-192 192zM685.2 493.2l-256 256c-25.020 25.020-65.52 24.98-90.5 0-25-25-25-65.5 0-90.5l146.9-146.7h-421.6c-35.38 0-64-28.6-64-64s28.62-64 64-64h421.6l-146.76-146.76c-25-25-25-65.5 0-90.5s65.5-25 90.5 0l256 256c24.86 25.060 24.86 65.46-0.14 90.46z" />
<glyph unicode="&#xe91d;" glyph-name="arrow-rotate-left" d="M960 448c0-246.8-201-447.8-447.8-447.8-97.72 0-190.38 31.16-268.4 89.72-28.28 21.18-34 61.32-12.782 89.62 21.22 28.18 61.38 33.94 89.6 12.75 55.68-41.82 122-63.88 191.78-63.88 176.202-0.010 319.602 143.39 319.602 319.59s-143.34 319.6-319.6 319.6c-100.6-0.040-195.2-48.2-255.2-127.6h126.8c35.34 0 64-28.62 64-64s-28.6-64-64-64h-288c-35.34 0-64 28.62-64 64v288c0 35.38 28.66 64 64 64s64-28.62 64-64v-140.46c84.2 107.3 212.2 172.24 352.2 172.24 246.8 0 447.8-200.98 447.8-447.78z" />
<glyph unicode="&#xe91e;" glyph-name="arrow-rotate-right" d="M992 864v-288c0-35.38-28.62-64-64-64h-288c-35.38 0-64 28.62-64 64s28.62 64 64 64h126.78c-59.94 79.4-154.5 127.56-255.2 127.56-176.18 0-319.58-143.36-319.58-319.56s143.38-319.6 319.6-319.6c69.76 0 136.060 22.060 191.76 63.88 28.44 21.060 68.44 15.5 89.62-12.75 21.18-28.32 15.5-68.44-12.75-89.62-78.060-58.56-170.72-89.72-268.4-89.72-246.83 0.010-447.83 201.010-447.83 447.81s201 447.8 447.8 447.8c138.3 0 268-64.94 352.2-172.24v140.44c0 35.38 28.62 64 64 64s64-28.62 64-64z" />
<glyph unicode="&#xe91f;" glyph-name="arrows-down-to-line" horiz-adv-x="1152" d="M1088 128c35.4 0 64-28.6 64-64s-28.6-64-64-64h-1024c-35.34 0-64 28.6-64 64s28.66 64 64 64h1024zM941.2 210.8c-25-25-65.4-25-90.4 0l-192 192c-25 25-25 65.4 0 90.4s65.4 25 90.4 0l82.8-82.6v421.4c0 35.34 28.6 64 64 64s64-28.66 64-64v-421.4l82.8 82.6c25 25 65.4 25 90.4 0s25-65.4 0-90.4l-192-192zM493.2 402.8l-192-192c-25-25-65.4-25-90.4 0l-192.054 192c-24.994 25-24.994 65.4 0 90.4s65.514 25 90.514 0l82.74-82.6v421.4c0 35.34 28.6 64 64 64s64-28.66 64-64v-421.4l82.8 82.6c25 25 65.4 25 90.4 0s25-65.4 0-90.4v0z" />
<glyph unicode="&#xe921;" glyph-name="arrows-left-right" d="M1005.2 402.8l-192-192c-12.4-12.6-28.8-18.8-45.2-18.8s-32.76 6.25-45.24 18.75c-25 25-25 65.5 0 90.5l82.84 82.75h-587l82.76-82.76c25-25 25-65.5 0-90.5-12.56-12.54-28.96-18.74-45.36-18.74s-32.76 6.25-45.24 18.75l-192 192c-25 25-25 65.5 0 90.5l192 192c25 25 65.5 25 90.5 0s25-65.5 0-90.5l-82.66-82.75h587l-82.76 82.76c-25 25-25 65.5 0 90.5s65.5 25 90.5 0l192-192c24.86-25.060 24.86-65.46-0.14-90.46z" />
<glyph unicode="&#xe922;" glyph-name="arrows-left-right-to-line" horiz-adv-x="1280" d="M64 832c35.34 0 64-28.66 64-64v-640c0-35.4-28.66-64-64-64s-64 28.6-64 64v640c0 35.34 28.66 64 64 64zM493.2 685.2c25-25 25-65.4 0-90.4l-82.6-82.8h458.8l-82.6 82.8c-25 25-25 65.4 0 90.4s65.4 25 90.4 0l192-192c25-25 25-65.4 0-90.4l-192-192c-25-25-65.4-25-90.4 0s-25 65.4 0 90.4l82.6 82.8h-458.8l82.6-82.8c25-25 25-65.4 0-90.4s-65.4-25-90.4 0l-192 192c-25.040 25-25.040 65.4 0 90.4l192 192c25 25 65.4 25 90.4 0v0zM1280 128c0-35.4-28.6-64-64-64s-64 28.6-64 64v640c0 35.34 28.6 64 64 64s64-28.66 64-64v-640z" />
<glyph unicode="&#xe923;" glyph-name="arrows-rotate" d="M928 928c-35.34 0-64-28.62-64-64v-148.18c-79.8 111.14-209.2 180.18-352 180.18-189 0-354.82-120.68-412.84-300.4-10.876-33.62 7.594-69.76 41.22-80.56 33.78-11 69.76 7.624 80.6 41.18 40.82 126.78 157.82 211.78 291.020 211.78 101 0 192.52-49.1 248.8-128h-88.8c-35.34 0-64-28.62-64-64s28.66-64 64-64h256c35.34 0 64 28.62 64 64v288c0 35.38-28.6 64-64 64zM883.6 380.8c-33.84 10.876-69.76-7.624-80.6-41.18-40.8-126.62-157.8-211.62-291-211.62-101 0-192.5 49.1-248.8 128h88.8c35.34 0 64 28.62 64 64s-28.66 64-64 64h-256c-35.34 0-64-28.62-64-64v-288c0-35.38 28.66-64 64-64s64 28.62 64 64v148.18c79.8-111.18 209.2-180.18 350.2-180.18 188.9 0 354.8 120.68 412.8 300.4 12.8 33.6-5.8 71.4-39.4 80.4z" />
<glyph unicode="&#xe924;" glyph-name="arrows-spin" d="M514.2 768.94c-22.6 0-44.8-2.38-68-6.88v130c23.4 3.22 45.6 4.88 68 4.88 116.4 0 222.4-44.38 302.2-117.16l58.8 58.84c20.2 20.16 54.6 5.88 54.6-22.62v-210.8c0-17.6-14.4-32-32-32h-210.8c-28.4 0-42.8 34.6-22.6 54.6l61.4 61.4c-56.4 49.6-130.4 79.74-211.6 79.74v0zM194.28 449c0-22.4 2.26-44 6.52-65h-129.86c-3.080 21.2-4.66 42.8-4.66 65 0 114.6 43.14 219.4 114.080 298.6l-58.98 59.020c-20.16 20.16-5.9 54.62 20.82 54.62h212.6c17.6 0 32-14.32 32-32v-210.64c0-28.6-34.6-42.8-54.6-22.8l-61.2 61.2c-47.8-56-76.72-128.6-76.72-208v0zM364.2 263.6l-58-57.8c56-48 128.6-76.8 208-76.8 21.2 0 41.8 2 61.8 5.8v-129.6c-20.2-2.8-40.8-4.2-61.8-4.2-114.6 0-219.4 44.8-298.6 114l-62.22-62.2c-20.16-20.2-54.64-5.8-54.64 22.6v210.8c0 17.6 14.34 32 32 32h210.66c26.8 0 42.8-34.4 22.8-54.6v0zM696.4 295.6l58-58c49.8 56.2 79.8 130.2 79.8 211.4 0 21.6-2 42.6-6.2 63h129.8c3-20.6 4.4-41.6 4.4-63 0-116.4-44.4-222.4-117-302.2l62-62c20.2-20.2 5.8-54.6-22.6-54.6h-210.8c-17.6 0-32 14.4-32 32v210.8c0 28.4 34.4 42.8 54.6 22.6v0z" />
<glyph unicode="&#xe925;" glyph-name="arrows-split-up-and-left" d="M493.2 658.8c-25-25-65.4-25-90.4 0s-25 65.4 0 90.4l192 192.056c25 24.992 65.4 24.992 90.4 0l192-192.056c25-25 25-65.4 0-90.4s-65.4-25-90.4 0l-82.8 82.6v-549.4c0-70.6 57.4-128 128-128h128c35.4 0 64-28.6 64-64s-28.6-64-64-64h-128c-141.4 0-256 114.6-256 256 0 70.6-57.4 128-128 128h-229.4l82.6-82.8c25-25 25-65.4 0-90.4s-65.4-25-90.4 0l-192.19 192c-11.46 11.6-18.558 27.4-18.609 45l4.855 24.6c3.124 9.4 7.754 14.8 13.888 20.8l192.056 192c25 25 65.4 25 90.4 0s25-65.4 0-90.4l-82.6-81h229.4c46.6 0 90.4-14.2 128-36v327.6l-82.8-82.6zM0 384.2c0.025 8.6 1.75 16.8 4.856 24.2-3.213-7.6-4.832-16-4.856-24.2zM0 383.8v0z" />
<glyph unicode="&#xe926;" glyph-name="arrows-to-circle" horiz-adv-x="1280" d="M18.744 941.256c24.996 24.992 65.516 24.992 90.516 0l208.94-210.656v39.2c0 33.54 30.4 64 64 64 37.2 0 64-30.46 64-64v-192c0-10.4 0-18.8-3-26.2-3.2-5.8-7.8-14.6-13.8-20.8l-0.2-0.2c-6.2-6-15-10.6-20.8-13.8-7.4-3-15.8-3-26.2-3h-192c-33.54 0-64 26.8-64 64 0 33.6 30.46 64 64 64h39.2l-210.656 208.94c-24.992 25-24.992 65.52 0 90.516v0zM768 448c0-70.6-57.4-128-128-128s-128 57.4-128 128c0 70.6 57.4 128 128 128s128-57.4 128-128zM192 256c-35.34 0-64 28.6-64 64s28.66 64 64 64h192.2c17.6 0 33.4-7.2 45-18.6l0.2-0.2c6-6.2 10.6-13.2 13.8-20.8 3-7.4 4.8-15.8 4.8-22.6v-193.8c0-35.4-28.6-64-64-64s-64 28.6-64 64v37.4l-210.74-210.6c-25-25-65.52-25-90.514 0s-24.994 65.4 0 90.4l210.654 210.8h-37.4zM896 832c35.4 0 64-28.66 64-64v-37.4l210.8 210.654c25 24.994 65.4 24.994 90.4 0s25-65.514 0-90.514l-210.6-210.74h37.4c35.4 0 64-28.6 64-64s-28.6-64-64-64h-192c-17.6 0-33.6 7.2-45.2 18.6l-0.2 0.2c-6 6.2-12.4 15-13.8 20.8-3 7.4-4.8 15.6-4.8 24.2v192.2c0 35.34 28.6 64 64 64v0zM1050.6 256l210.6-210.8c25-25 25-65.4 0-90.4s-65.4-25-90.4 0l-210.8 210.6v-37.4c0-35.4-28.6-64-64-64s-64 28.6-64 64v192c0 1.8 0 0.2 0 0.2 0 8.6 1.8 16.8 4.8 24.2 1.4 9.4 7.8 14.8 14 20.8 11.4 11.6 27.4 18.8 45 18.8 0 0-1.6 0 0.2 0h192c35.4 0 64-28.6 64-64s-28.6-64-64-64h-37.4z" />
<glyph unicode="&#xe927;" glyph-name="arrows-to-dot" d="M576 794.52l18.8 18.74c25 24.98 65.4 24.98 90.4 0 25-25 25-65.46 0-90.46l-128-128c-25-25-65.4-25-90.4 0l-128 128c-25 25-25 65.46 0 90.46 25 24.98 65.4 24.98 90.4 0l17-18.76v101.5c0 35.34 30.4 64 64 64 37.2 0 65.8-28.66 65.8-64v-101.48zM877.2 274.8c-25-25-65.4-25-90.4 0l-128 128c-25 25-25 65.4 0 90.4l128 128c25 25 65.4 25 90.4 0s25-65.4 0-90.4l-18.6-17h101.4c35.4 0 64-30.4 64-64 0-37.2-28.6-64-64-64h-101.4l18.6-20.6c25-25 25-65.4 0-90.4v0zM576 448c0-35.4-28.6-64-64-64s-64 28.6-64 64c0 35.4 28.6 64 64 64s64-28.6 64-64zM365.2 493.2c25-25 25-65.4 0-90.4l-128-128c-25-25-65.46-25-90.46 0-24.98 25-24.98 65.4 0 90.4l18.76 18.8h-101.5c-35.34 0-64 28.6-64 64s28.66 64 64 64h101.48l-18.74 18.8c-24.98 25-24.98 65.4 0 90.4 25 25 65.46 25 90.46 0l128-128zM338.8 82.8c-25 25-25 65.4 0 90.4l128 128c25 25 65.4 25 90.4 0l128-128c25-25 25-65.4 0-90.4s-65.4-25-90.4 0l-18.8 18.6v-101.4c0-35.4-28.6-64-64-64s-64 28.6-64 64v101.4l-18.8-18.6c-25-25-65.4-25-90.4 0v0z" />
<glyph unicode="&#xe928;" glyph-name="arrows-to-eye" horiz-adv-x="1280" d="M30.060 929.94c18.74 18.746 49.14 18.746 67.88 0l126.060-126.060v76.12c0 26.5 21.4 49.8 48 49.8s48-23.3 48-49.8v-192c0-26.6-21.4-48-48-48h-192c-26.5 0-49.8 21.4-49.8 48s23.3 48 49.8 48h76.12l-126.060 126.060c-18.746 18.74-18.746 49.14 0 67.88v0zM267 472.2c50.2 100.6 178.4 263.8 373 263.8s322.8-163.2 373-263.8c7.6-15.4 7.6-33 0-48.4-50.2-100.6-178.4-263.8-373-263.8s-322.8 163.2-373 263.8c-7.6 15.4-7.6 33 0 48.4v0zM640 320c70.6 0 128 57.4 128 128s-57.4 128-128 128c-70.6 0-128-57.4-128-128s57.4-128 128-128zM1182 929.94c18.8 18.746 49.2 18.746 66.2 0 20.4-18.74 20.4-49.14 0-67.88l-124.4-126.060h76.2c26.6 0 48-21.4 48-48s-21.4-48-48-48h-192c-26.6 0-48 21.4-48 48v192c0 26.5 21.4 49.8 48 49.8s48-23.3 48-49.8v-76.12l126 126.060zM30.060 34l126.060 126h-76.12c-26.5 0-49.8 21.4-49.8 48s23.3 48 49.8 48h192c26.6 0 48-21.4 48-48v-192c0-26.6-21.4-48-48-48s-48 21.4-48 48v76.2l-126.060-124.4c-18.74-20.4-49.14-20.4-67.88 0-18.746 17-18.746 47.4 0 66.2v0zM1056 92.2v-76.2c0-26.6-21.4-48-48-48s-48 21.4-48 48v192c0 26.6 21.4 48 48 48h192c26.6 0 48-21.4 48-48s-21.4-48-48-48h-76.2l124.4-126c20.4-18.8 20.4-49.2 0-66.2-17-20.4-47.4-20.4-66.2 0l-126 124.4z" />
<glyph unicode="&#xe929;" glyph-name="arrows-turn-right" horiz-adv-x="896" d="M594.8 941.256c25 24.992 65.4 24.992 90.4 0l192-192.056c25-25 25-65.4 0-90.4l-192-192c-25-25-65.4-25-90.4 0s-25 65.4 0 90.4l82.6 82.8h-421.4c-70.7 0-128-57.4-128-128v-64c0-35.4-28.66-64-64-64s-64 28.6-64 64v64c0 141.4 114.62 256 256 256h421.4l-82.6 82.74c-25 25-25 65.52 0 90.514v0.002zM402.8 429.2c25 25 65.4 25 90.4 0l192-192c25-25 25-65.4 0-90.4l-192-192c-25-25-65.4-25-90.4 0s-25 65.4 0 90.4l82.6 82.8h-293.4c-35.34 0-64-28.6-64-64v-64c0-35.4-28.66-64-64-64s-64 28.6-64 64v64c0 107.8 85.96 192 192 192h293.4l-82.6 82.8c-25 25-25 65.4 0 90.4v0z" />
<glyph unicode="&#xe92a;" glyph-name="arrows-turn-to-dots" d="M498.8 909.26c25 24.98 65.4 24.98 90.4 0 25-25 25-65.52 0-90.52l-50.6-48.94h293.4c106 0 192-86 192-192v-64c0-37.2-28.6-64-64-64s-64 26.8-64 64v64c0 33.6-28.6 64-64 64h-293.4l50.6-52.6c25-25 25-65.4 0-90.4s-65.4-25-90.4 0l-160 160c-25 25-25 65.4 0 90.4l160 160.060zM685.2 237.2c25-25 25-65.4 0-90.4l-160-160c-25-25-65.4-25-90.4 0s-25 65.4 0 90.4l50.6 50.8h-293.4c-35.34 0-64-28.6-64-64v-64c0-35.4-28.66-64-64-64s-64 28.6-64 64v64c0 107.8 85.96 192 192 192h293.4l-50.6 50.8c-25 25-25 65.4 0 90.4s65.4 25 90.4 0l160-160zM1024 192c0-70.6-57.4-128-128-128s-128 57.4-128 128c0 70.6 57.4 128 128 128s128-57.4 128-128zM256 704c0-70.6-57.3-128-128-128s-128 57.4-128 128c0 70.7 57.3 128 128 128s128-57.3 128-128z" />
<glyph unicode="&#xe92b;" glyph-name="arrows-up-down" horiz-adv-x="512" d="M493.2 237.2c12.6-12.4 18.8-28.8 18.8-45.2s-6.25-32.76-18.75-45.24l-192-192c-25-25-65.5-25-90.5 0l-192 192c-25 25-25 65.5 0 90.5s65.5 25 90.5 0l82.75-82.86v587l-82.74-82.6c-25-25-65.5-25-90.5 0s-25 65.5 0 90.5l192 192c25 25 65.5 25 90.5 0l192-192c12.54-12.5 18.74-28.9 18.74-45.3s-6.25-32.76-18.75-45.24c-25-25-65.5-25-90.5 0l-82.75 82.64v-587l82.76 82.76c25.040 25.040 65.44 25.040 90.44 0.040z" />
<glyph unicode="&#xe92c;" glyph-name="arrows-up-down-left-right" d="M1024 449.8c0-16.376-6.25-32.82-18.75-45.32l-144-144c-12.45-14.28-28.85-20.48-45.25-20.48-36.56 0-64 29.9-64 64 0 16.376 6.25 32.76 18.75 45.24l34.85 34.76h-229.6v-229.6l34.76 34.76c12.44 12.64 28.84 18.84 45.24 18.84 36.56 0 64-29.9 64-64 0-16.376-6.25-32.76-18.75-45.24l-144-144c-12.45-12.56-28.85-18.76-45.25-18.76s-32.76 6.25-45.24 18.75l-144 144c-12.56 12.45-18.76 28.85-18.76 45.25 0 34.1 27.46 64 64 64 16.376 0 32.76-6.25 45.24-18.75l34.76-34.85v229.6h-229.4l34.76-34.76c12.44-12.44 18.64-28.84 18.64-45.24 0-34.1-27.46-64-64-64-16.376 0-32.76 6.25-45.24 18.75l-144 144c-12.51 12.45-18.76 28.85-18.76 47.050s6.25 32.68 18.75 45.18l144 144c12.51 10.82 28.87 17.020 45.25 17.020 36.56 0 64-29.9 64-64 0-16.376-6.25-32.76-18.75-45.24l-34.65-34.76h229.4v229.4l-34.8-34.6c-12.4-12.6-28.8-18.8-45.2-18.8-36.56 0-64 29.9-64 64 0 16.376 6.25 32.76 18.75 45.24l144 144c12.45 12.51 28.85 18.76 45.25 18.76s32.76-6.25 45.24-18.75l144-144c12.56-12.51 18.76-28.87 18.76-45.25 0-34.1-27.46-64-64-64-16.376 0-32.76 6.25-45.24 18.75l-34.76 34.65v-229.4h229.6l-34.76 34.76c-12.64 12.44-18.84 28.84-18.84 45.24 0 34.1 27.46 64 64 64 16.376 0 32.76-6.25 45.24-18.75l144-144c12.56-12.45 18.76-28.85 18.76-43.45z" />
<glyph unicode="&#xe92d;" glyph-name="arrows-up-to-line" horiz-adv-x="1152" d="M64 768c-35.34 0-64 28.66-64 64s28.66 64 64 64h1024c35.4 0 64-28.66 64-64s-28.6-64-64-64h-1024zM210.8 685.2c25 25 65.4 25 90.4 0l192-192c25-25 25-65.4 0-90.4s-65.4-25-90.4 0l-82.8 82.6v-421.4c0-35.4-28.6-64-64-64s-64 28.6-64 64v421.4l-82.74-82.6c-25-25-65.52-25-90.516 0-24.992 25-24.992 65.4 0 90.4l192.056 192zM658.8 493.2l192 192c25 25 65.4 25 90.4 0l192-192c25-25 25-65.4 0-90.4s-65.4-25-90.4 0l-82.8 82.6v-421.4c0-35.4-28.6-64-64-64s-64 28.6-64 64v421.4l-82.8-82.6c-25-25-65.4-25-90.4 0s-25 65.4 0 90.4v0z" />
<glyph unicode="&#xe92e;" glyph-name="arrow-trend-down" horiz-adv-x="1152" d="M933.4 256l-293.4 293.4-210.8-210.6c-25-25-65.4-25-90.4 0l-320.056 320c-24.992 25-24.992 65.4 0 90.4 24.996 25.040 65.516 25.040 90.516 0l272.94-274.6 212.6 210.6c25 25 65.4 25 90.4 0l338.8-338.6v167.2c0 33.6 28.6 64 64 64s64-30.4 64-64v-321.8c0-35.4-28.6-64-64-64h-320c-35.4 0-64 28.6-64 64s28.6 64 64 64h165.4z" />
<glyph unicode="&#xe92f;" glyph-name="arrow-trend-up" horiz-adv-x="1152" d="M768 640c-35.4 0-64 28.6-64 64s28.6 64 64 64h320c35.4 0 64-28.6 64-64v-320c0-35.4-28.6-64-64-64s-64 28.6-64 64v165.4l-338.8-338.6c-25-25-65.4-25-90.4 0l-212.6 210.6-272.94-274.6c-25-25-65.52-25-90.516 0-24.992 25-24.992 65.4 0 90.4l320.056 320c25 25 65.4 25 90.4 0l210.8-210.6 293.4 295.2-165.4-1.8z" />
<glyph unicode="&#xe930;" glyph-name="arrow-turn-down" horiz-adv-x="768" d="M685.2 210.8l-256-256c-12.4-12.6-28.8-18.8-47-18.8s-32.76 6.25-45.26 18.75l-254.2 256c-25 25-25 65.5 0 90.5s65.5 25 90.5 0l146.76-146.85v645.6c0 17.62-14.4 32-32 32h-224c-35.34 0-64 28.62-64 64s28.66 64 64 64h224c88.2 0 160-71.76 160-160v-645.6l146.74 146.76c25 25 65.5 25 90.5 0s24.96-65.36-0.040-90.36z" />
<glyph unicode="&#xe931;" glyph-name="arrow-turn-up" horiz-adv-x="768" d="M685.2 594.8c-12.4-12.6-28.8-18.8-47-18.8s-32.76 6.25-45.24 18.75l-144.96 146.65v-645.4c0-88.26-71.78-160-160-160h-224c-35.34 0-64 28.62-64 64s28.66 64 64 64h224c17.6 0 32 14.4 32 32v645.4l-146.76-146.6c-25-25-65.5-25-90.5 0s-25 65.5 0 90.5l254.2 256c25 25 65.5 25 90.5 0l256-256c26.76-25.1 26.76-65.5 1.76-90.5z" />
<glyph unicode="&#xe932;" glyph-name="arrow-up" horiz-adv-x="768" d="M749.2 466.8c-12.4-12.6-28.8-18.8-45.2-18.8s-32.76 6.25-45.24 18.75l-210.76 210.65v-613.4c0-35.38-28.66-62.2-62.2-62.2s-65.8 26.8-65.8 62.2v613.4l-210.74-210.6c-25-25-65.5-25-90.5 0s-25 65.5 0 90.5l320 320c25 25 65.5 25 90.5 0l320-320c24.94-25.1 24.94-65.5-0.060-90.5z" />
<glyph unicode="&#xe933;" glyph-name="arrow-up-1-9" d="M640 576c0-35.38 28.62-62.2 64-62.2l128-1.8c35.38 0 64 28.62 64 64s-28.62 64-64 64v192.040c0 22.38-11.688 43.060-30.76 54.68-19.062 11.562-42.82 12.376-62.68 2.124l-64-33.18c-31.38-16.25-43.62-54.88-27.38-86.26 11.42-22.004 33.62-34.604 56.82-34.604v-94.8c-35.4 0-64-28.6-64-64zM784 448.8c-97.2 0-176-78.8-176-176 0-72.88 44.3-135.4 107.42-162.14l-15.364-16.008c-21.44-22.32-20.68-57.76 1.625-79.12 10.919-10.332 24.919-15.532 38.719-15.532 14.688 0 29.44 5.75 40.38 17.25 139.22 145.060 179.2 170.78 179.2 255.6 0.020 98.95-78.78 175.95-175.98 175.95zM784 224.8c-26.46 0-48 21.54-48 48s21.54 48 48 48 48-21.54 48-48-21.6-48-48-48zM79.98 576.6c17.344 0 34.6 7 47.22 20.76l64.8 70.84v-604c0-35.4 28.66-64.060 62.2-64.060s64 28.66 64 64.060v604l66.6-70.8c24-26 64.4-27.8 90.4-4 26.060 23.9 27.8 64.44 3.938 90.54l-175.938 192.18c-24.24 26.52-70.12 26.52-94.38 0l-174.2-192.18c-25.67-26.14-23.92-66.54 2.14-90.54 12.28-11.2 27.78-16.8 43.22-16.8z" />
<glyph unicode="&#xe934;" glyph-name="arrow-up-9-1" d="M475.2 593.4c26.060 23.9 27.8 64.44 3.938 90.54l-175.938 192.18c-24.24 26.52-70.12 26.52-94.38 0l-174.2-192.18c-25.67-26.14-23.92-66.54 2.14-90.54 26.040-23.9 66.54-22.080 90.44 3.938l64.8 70.862v-604c0-35.4 28.66-64.060 62.2-64.060s64 28.66 64 64.060v604l66.6-70.8c12.624-13.766 29.88-20.76 47.22-20.76 15.38-0.040 30.98 5.56 43.18 16.76zM715.4 557.8l-15.364-16.008c-21.44-22.32-20.68-57.76 1.625-79.12 10.812-10.438 24.82-15.624 38.76-15.624 14.688 0 29.44 5.75 40.38 17.25 139.22 145.060 179.2 170.78 179.2 255.6 0 97.2-78.8 176-176 176s-176-78.8-176-176c-1.801-72.698 44.199-135.298 107.399-162.098zM784 768c26.46 0 48-21.54 48-48s-21.6-48-48-48-48 21.6-48 48 21.6 48 48 48zM832 127.2v192.040c0 22.38-11.688 43.060-30.76 54.68-19.062 11.562-42.82 12.376-62.68 2.124l-64-33.18c-31.38-16.25-43.62-54.88-27.38-86.26 11.42-22.204 33.62-34.604 56.82-34.604v-94.82c-35.38 0-64-28.62-64-64s28.62-64 64-64h128c35.38 0 64 28.62 64 64s-28.6 64.020-64 64.020z" />
<glyph unicode="&#xe935;" glyph-name="arrow-up-a-z" d="M303.2 876.1c-24.24 26.52-70.12 26.52-94.38 0l-174.2-192.18c-25.674-26.12-23.924-66.72 2.14-90.52 26.040-23.9 66.54-22.080 90.44 3.946l64.8 70.854v-604c0-35.6 28.6-64.2 64-64.2s64 28.6 64 65.8v602.4l64.8-70.8c22.92-24.98 63.34-28.78 90.44-3.946 26.060 23.9 27.8 64.44 3.938 90.54l-175.978 192.106zM896 128h-101.5l146.76 146.76c18.312 18.312 23.78 45.82 13.876 69.76s-33.26 39.72-59.12 39.72h-257.816c-33.6-0.040-62.2-28.84-62.2-64.24s28.66-64 64-64h101.5l-146.76-146.76c-18.312-18.312-23.78-45.82-13.876-69.76s33.336-39.48 57.336-39.48h254.2c39 0 67.6 28.6 67.6 64s-28.6 64-64 64zM985.2 541.4l-159.98 320.2c-21.68 43.62-92.8 43.62-114.48 0l-159.94-320.2c-15.812-31.82-3-70.48 28.62-86.38 31.74-15.844 70.080-2.954 85.86 28.8l14.308 28.78h176.86l14.308-28.78c12.348-24.86 47.94-47.74 85.86-28.8 31.584 15.78 44.384 54.58 28.584 86.38zM735.6 625.2l32.4 65.4 32.44-65.26h-64.84z" />
<glyph unicode="&#xe936;" glyph-name="arrow-up-from-bracket" horiz-adv-x="896" d="M768 256v-128c0-35.34-28.66-64-64-64h-512c-35.34 0-64 28.66-64 64v128c0 35.34-28.66 64-64 64s-64-28.66-64-64v-128c0-106.040 85.96-192 192-192h512c106.040 0 192 85.96 192 192v128c0 35.34-28.66 64-64 64s-64-28.6-64-64zM402.8 941.25l-256-256c-25.020-25.020-24.98-65.52 0-90.5 25-25 65.5-25 90.5 0l146.7 146.65v-421.4c0-35.38 28.62-64 64-64s64 28.62 64 64v421.4l146.76-146.76c25-25 65.5-25 90.5 0s25 65.5 0 90.5l-256 256c-25.060 25.11-65.46 25.11-90.46 0.11z" />
<glyph unicode="&#xe939;" glyph-name="arrow-up-long" horiz-adv-x="640" d="M621.2 594.8c-25.020-25.020-65.52-24.98-90.5 0l-146.7 146.6v-741.4c0-35.38-28.62-64-64-64s-64 28.62-64 64v741.4l-146.74-146.6c-25-25-65.5-25-90.5 0s-25 65.5 0 90.5l256 256c25 25 65.5 25 90.5 0l256-256c24.94-25.1 24.94-65.5-0.060-90.5z" />
<glyph unicode="&#xe93a;" glyph-name="arrow-up-right-dots" horiz-adv-x="1152" d="M574.2 960c37.2 0 65.8-28.66 65.8-64v-256c0-35.4-28.6-64-65.8-64-33.6 0-64 28.6-64 64v101.4l-400.94-402.6c-25-25-65.52-25-90.516 0-24.992 25-24.992 65.4 0 90.4l402.656 402.8h-103.2c-33.6 0-64 28.66-64 64s30.4 64 64 64h256zM1152 800c0-53-43-96-96-96s-96 43-96 96c0 53.020 43 96 96 96s96-42.98 96-96zM896 544c0-53-43-96-96-96s-96 43-96 96c0 53 43 96 96 96s96-43 96-96zM704 288c0 53 43 96 96 96s96-43 96-96c0-53-43-96-96-96s-96 43-96 96zM896 32c0-53-43-96-96-96s-96 43-96 96c0 53 43 96 96 96s96-43 96-96zM1152 32c0-53-43-96-96-96s-96 43-96 96c0 53 43 96 96 96s96-43 96-96zM446.2 288c0 53 44.8 96 96 96 54.8 0 97.8-43 97.8-96s-43-96-97.8-96c-51.2 0-96 43-96 96zM640 32c0-53-43-96-97.8-96-51.2 0-96 43-96 96s44.8 96 96 96c54.8 0 97.8-43 97.8-96zM190.2 32c0 53 44.8 96 96 96 54.8 0 96-43 96-96s-41.2-96-96-96c-51.2 0-96 43-96 96zM1152 288c0-53-43-96-96-96s-96 43-96 96c0 53 43 96 96 96s96-43 96-96zM960 544c0 53 43 96 96 96s96-43 96-96c0-53-43-96-96-96s-96 43-96 96z" />
<glyph unicode="&#xe93b;" glyph-name="arrow-up-right-from-square" horiz-adv-x="896" d="M512 832c0 35.34 28.6 64 64 64h254.2c0 0 0 0 0 0 10.4 0 18.8-1.72 26.2-4.86 5.8-3.1 14.6-7.68 20.8-13.74 0-0.1 0-0.2 0.2-0.28 12.4-12.44 16.8-28.68 18.6-44.92 0-0.080 0-0.14 0-0.2v-256c0-35.4-28.6-64-64-64s-64 28.6-64 64v101.4l-338.8-338.6c-25-25-65.4-25-90.4 0s-25 65.4 0 90.4l338.6 338.8h-101.4c-35.4 0-64 28.66-64 64v0zM0 704c0 70.7 57.3 128 128 128h192c35.4 0 64-28.66 64-64 0-35.4-28.6-64-64-64h-192v-576h576v192c0 35.4 28.6 64 64 64s64-28.6 64-64v-192c0-70.6-57.4-128-128-128h-576c-70.7 0-128 57.4-128 128v576z" />
<glyph unicode="&#xe93c;" glyph-name="arrow-up-short-wide" horiz-adv-x="1152" d="M1088 128h-446.2c-35.34 0-64-28.66-64-64s28.66-64 64-64h446.2c35.34 0 64 28.66 64 64s-28.6 64-64 64zM640 768h64c35.34 0 62.2 28.66 62.2 64s-28.66 64-62.2 64h-64c-35.34 0-64-28.66-64-64s28.6-64 64-64zM640 512h192c35.34 0 64 28.66 64 64s-28.66 64-64 64h-190.2c-35.34 0-64-28.66-64-64s26.8-64 62.2-64zM640 256h320c35.34 0 64 28.66 64 64s-28.66 64-64 64h-318.2c-35.34 0-64-28.66-64-64s26.8-64 62.2-64zM303.2 876.1c-24.24 26.52-70.12 26.52-94.38 0l-174.2-192.18c-25.67-26.12-23.92-66.72 2.14-90.52 12.282-11.258 27.78-16.828 43.22-16.828 17.344 0 34.6 7.008 47.22 20.78l64.8 70.848v-604c0-35.6 28.6-64.2 64-64.2s64 28.66 64 64.060v604.14l64.8-70.8c24-26 64.4-28 90.4-4 26.060 23.9 27.8 64.44 3.938 90.54l-175.938 192.16z" />
<glyph unicode="&#xe93d;" glyph-name="arrow-up-wide-short" horiz-adv-x="1152" d="M832 384h-190.2c-35.34 0-64-28.66-64-64s28.66-64 64-64h190.2c35.34 0 64 28.66 64 64s-28.6 64-64 64zM704 128h-64c-35.34 0-64-28.66-64-64s28.66-64 64-64h64c35.34 0 62.2 28.66 62.2 64s-26.8 64-62.2 64zM960 640h-318.2c-35.34 0-64-28.66-64-64s28.66-64 64-64h318.2c35.34 0 64 28.66 64 64s-28.6 64-64 64zM1088 896h-446.2c-35.34 0-64-28.66-64-64s28.66-64 64-64h446.2c35.34 0 64 28.66 64 64s-28.6 64-64 64zM303.2 876.1c-24.24 26.52-70.12 26.52-94.38 0l-174.2-192.18c-25.67-26.12-23.92-66.72 2.14-90.52 12.282-11.258 27.78-16.828 43.22-16.828 17.344 0 34.6 7.008 47.22 20.78l64.8 70.848v-604c0-35.6 28.6-64.2 64-64.2s64 28.66 64 64.060v604.14l64.8-70.8c24-26 64.4-28 90.4-4 26.060 23.9 27.8 64.44 3.938 90.54l-175.938 192.16z" />
<glyph unicode="&#xe93e;" glyph-name="arrow-up-z-a" d="M303.2 876.1c-24.24 26.52-70.12 26.52-94.38 0l-174.2-192.18c-25.674-26.12-23.924-66.72 2.14-90.52 26.040-23.9 66.54-22.080 90.44 3.946l64.8 70.854v-604c0-35.6 28.6-64.2 64-64.2s64 28.6 64 65.8v602.4l64.8-70.8c12.624-13.766 29.88-20.78 47.22-20.78 15.438 0 30.94 5.57 43.22 16.828 26.060 23.9 27.8 64.44 3.938 90.54l-175.978 192.112zM640 768h101.5l-146.76-146.76c-18.312-18.312-23.78-45.82-13.876-69.76s33.26-39.48 59.12-39.48h254.2c37.216 1.8 65.816 28.6 65.816 64s-28.66 64-64 64h-101.5l146.76 146.76c18.312 18.312 23.78 45.82 13.876 69.76s-33.336 39.48-60.936 39.48h-254.2c-35.4 0-64-28.62-64-64s28.6-64 64-64zM985.2 93.4l-159.98 320.2c-21.68 43.62-92.8 43.62-114.48 0l-159.98-320.2c-15.812-31.82-3-70.48 28.62-86.38 31.74-15.844 70.080-2.954 85.86 28.8l14.308 28.78h176.86l14.308-28.78c12.348-24.86 47.94-47.74 85.86-28.8 31.624 15.78 44.424 54.58 28.624 86.38zM735.6 177.2l32.4 65.4 32.44-65.26h-64.84z" />
<glyph unicode="&#xe93f;" glyph-name="asterisk" horiz-adv-x="896" d="M834.2 224c-11.874-20.54-33.38-32-55.5-32-10.844 0-21.84 2.75-31.94 8.562l-234.76 136.638v-273.2c0-35.34-28.66-64-62.2-64s-65.8 28.6-65.8 64v273.2l-236.6-136.58c-10.060-5.82-21.060-8.62-31.9-8.62-22.12 0-43.62 11.468-55.5 32-17.656 30.62-7.188 69.76 23.44 87.44l234.76 136.56-234.76 136.6c-30.62 17.6-41.1 56.8-25.24 87.4 15.060 23 40.32 34.6 65.1 31.6 8.26-1 16.46-3.8 24.14-8.2l236.56-136.6v273.2c0 35.34 28.66 64 64 64s64-28.66 64-64v-273.2l236.6 136.58c7.676 4.426 15.878 7.078 24.14 8.102 24.66 3.118 50.060-8.482 61.46-31.482 17.656-30.62 7.188-69.76-23.44-87.44l-234.76-136.56 236.6-136.56c30.6-17.64 41-56.84 21.6-87.44z" />
<glyph unicode="&#xe948;" glyph-name="backward" d="M919 817.18l-343-285.8v-166.9l343-285.8c41.2-34.080 105-5.28 105 51.12v638.14c0 54.74-63.8 83.5-105 49.24zM407 817.18l-384.12-319.98c-30.5-25.74-30.5-72.74 0-98.48l384-318.2c41.26-34.24 105.020-5.498 105.020 49.24v639.8c-1.7 53.12-63.7 81.88-104.9 47.62z" />
<glyph unicode="&#xe949;" glyph-name="backward-fast" d="M0 129.8v638.14c0 35.34 28.66 62.2 62.2 62.2 37.14 1.8 65.8-26.86 65.8-62.2v-263.6l343 313c41.2 34.1 105 5.34 105-49.4v-263.8l343 313c41.2 34.3 105 5.54 105-49.2v-639.8c0-54.74-63.76-83.48-105-49.24l-343 310.7v-261.4c0-54.74-63.76-83.48-105-49.24l-343 310.64v-261.4c0-35.34-28.66-62.2-62.2-62.2-37.14-0.2-65.8 26.8-65.8 63.8z" />
<glyph unicode="&#xe94a;" glyph-name="backward-step" horiz-adv-x="640" d="M62.2 831.94c-35.34 0-62.2-28.66-62.2-64v-639.8c0-35.34 28.66-64 64-64 35.34 1.66 64 28.66 64 65.66v638.14c0 35.34-28.66 64-65.8 64zM535 817.18l-384-318.2c-15.36-14.58-23-32.78-23-50.98 0-18.188 7.64-36.36 22.88-49.24l384-318.2c41.26-34.24 105.020-5.5 105.020 49.24v639.8c-1.7 53.080-63.7 81.84-104.9 47.58z" />
<glyph unicode="&#xe951;" glyph-name="ban" d="M1024 448c0-282.8-229.2-512-512-512s-512 229.2-512 512c0 282.8 229.2 512 512 512s512-229.2 512-512zM199 670.4c-44.7-62.6-71-139.4-71-222.4 0-212 170.2-384 384-384 83 0 159.8 26.2 222.4 71l-535.4 535.4zM896 448c0 213.8-172 384-384 384-83 0-159.8-26.3-222.4-71l535.4-535.4c44.8 62.6 71 139.4 71 222.4v0z" />
<glyph unicode="&#xe955;" glyph-name="bars" horiz-adv-x="896" d="M0 768c0 35.34 28.66 64 64 64h768c35.4 0 64-28.66 64-64 0-35.4-28.6-64-64-64h-768c-35.34 0-64 28.6-64 64zM0 448c0 35.4 28.66 64 64 64h768c35.4 0 64-28.6 64-64s-28.6-64-64-64h-768c-35.34 0-64 28.6-64 64zM832 64h-768c-35.34 0-64 28.6-64 64s28.66 64 64 64h768c35.4 0 64-28.6 64-64s-28.6-64-64-64z" />
<glyph unicode="&#xe956;" glyph-name="bars-progress" d="M928 832c53 0 96-42.98 96-96v-128c0-53-43-96-96-96h-832c-53.020 0-96 43-96 96v128c0 53.020 42.98 96 96 96h832zM896 704h-256v-64h256v64zM928 384c53 0 96-43 96-96v-128c0-53-43-96-96-96h-832c-53.020 0-96 43-96 96v128c0 53 42.98 96 96 96h832zM384 256v-64h512v64h-512z" />
<glyph unicode="&#xe957;" glyph-name="bars-staggered" d="M0 768c0 35.34 28.66 64 64 64h768c35.4 0 64-28.66 64-64 0-35.4-28.6-64-64-64h-768c-35.34 0-64 28.6-64 64zM128 448c0 35.4 28.66 64 64 64h768c35.4 0 64-28.6 64-64s-28.6-64-64-64h-768c-35.34 0-64 28.6-64 64zM832 64h-768c-35.34 0-64 28.6-64 64s28.66 64 64 64h768c35.4 0 64-28.6 64-64s-28.6-64-64-64z" />
<glyph unicode="&#xe965;" glyph-name="bell" horiz-adv-x="896" d="M512 896v-38.4c146-29.66 256-158.8 256-313.6v-37.6c0-94.2 34.6-184.8 97-255.2l14.8-16.6c16.8-19 21-45.8 10.6-68.8s-33.2-37.8-58.4-37.8h-768c-25.2 0-48.058 14.8-58.382 37.8s-6.195 49.8 10.55 68.8l14.832 16.6c62.48 70.4 97 161 97 255.2v37.6c0 154.8 108.2 283.94 256 313.6v38.4c0 35.34 28.6 64 64 64s64-28.66 64-64v0zM448-64c-34 0-66.6 13.4-90.6 37.4s-37.4 58.4-37.4 90.6h256c0-32.2-13.4-66.6-37.4-90.6s-58.4-37.4-90.6-37.4z" />
<glyph unicode="&#xe967;" glyph-name="bell-slash" horiz-adv-x="1280" d="M372 719c46 70.24 118.8 121.32 204 138.6v38.4c0 35.34 28.6 63.999 64 63.999s64-28.659 64-63.999v-38.4c146-29.66 256-158.8 256-313.6v-37.6c0-94.2 34.6-184.8 97-255.2l14.8-16.6c16.8-19 21-45.8 10.6-68.8-2.2-0.8-0.8 0-1.2-2.6l180.4-141.4c20.8-16.4 24.6-46.6 8.2-67.4s-46.6-24.6-67.4-8.2l-1184.008 928.020c-20.864 16.36-24.522 46.52-8.168 67.388 16.356 20.864 46.516 24.522 67.396 8.168l294.38-230.776zM320 506.4v9.4l492.4-387.8h-556.4c-25.2 0-49.8 14.8-58.38 37.8-10.32 23-6.2 49.8 10.58 68.8l14.8 16.6c62.4 70.4 97 161 97 255.2v0zM640-64c-34 0-66.6 13.4-90.6 37.4s-37.4 58.4-37.4 90.6h256c0-32.2-13.4-66.6-37.4-90.6s-58.4-37.4-90.6-37.4z" />
<glyph unicode="&#xe968;" glyph-name="bezier-curve" horiz-adv-x="1280" d="M704 896c53 0 96-42.98 96-96v-8h236.8c20.8 42.62 64.6 72 115.2 72 70.6 0 128-57.3 128-128 0-70.6-57.4-128-128-128-50.6 0-94.4 29.4-115.2 72h-133.8c117.8-79.2 197.8-208.2 208-360h9c53 0 96-43 96-96v-128c0-53-43-96-96-96h-128c-53 0-96 43-96 96v128c0 53 43 96 96 96h6.6c-11.8 134-97 246.8-215 298.2-17.4-25.4-46.4-42.2-79.6-42.2h-128c-33.2 0-62.2 16.8-79.6 42.2-118-51.4-203.2-164.2-215-298.2h6.6c53 0 96-43 96-96v-128c0-53-43-96-96-96h-128c-53.020 0-96 43-96 96v128c0 53 42.98 96 96 96h9.060c10.060 151.8 90.14 280.8 207.94 360h-133.8c-20.8-42.6-64.6-72-115.2-72-70.7 0-128 57.4-128 128 0 70.7 57.3 128 128 128 50.6 0 94.4-29.38 115.2-72h236.8v8c0 53.020 43 96 96 96h128zM592 688h96v96h-96v-96zM176 208v-96h96v96h-96zM1104 112v96h-96v-96h96z" />
<glyph unicode="&#xe971;" glyph-name="bolt" horiz-adv-x="768" d="M481 512h223c26.6 0 50.6-16.6 58.2-41.4 11-25 4-53.2-16-70.8l-512-448c-22.6-19.6-55.66-21.2-79.82-3.6-24.18 17.6-32.98 49.6-21.2 77l153.82 358.8h-224.8c-24.86 0-48.734 16.6-58.112 41.4-9.378 25-2.299 53.2 17.772 70.8l511.94 447.964c22.6 19.676 55.6 21.174 79.8 3.608 24.2-17.572 33-49.512 21.2-76.992l-153.8-358.78z" />
<glyph unicode="&#xe978;" glyph-name="border-all" horiz-adv-x="896" d="M768 896c70.6 0 128-57.3 128-128v-640c0-70.6-57.4-128-128-128h-640c-70.7 0-128 57.4-128 128v640c0 70.7 57.3 128 128 128h640zM768 768h-256v-256h256v256zM768 384h-256v-256h256v256zM384 512v256h-256v-256h256zM128 128h256v256h-256v-256z" />
<glyph unicode="&#xe979;" glyph-name="border-none" horiz-adv-x="896" d="M128 64c0-35.4-28.66-64-64-64s-64 28.6-64 64c0 35.4 28.66 64 64 64s64-28.6 64-64zM256 0c-35.4 0-64 28.6-64 64s28.6 64 64 64c35.4 0 64-28.6 64-64s-28.6-64-64-64zM256 768c-35.4 0-64 28.66-64 64s28.6 64 64 64c35.4 0 64-28.66 64-64s-28.6-64-64-64zM320 448c0-35.4-28.6-64-64-64s-64 28.6-64 64c0 35.4 28.6 64 64 64s64-28.6 64-64zM640 0c-35.4 0-64 28.6-64 64s28.6 64 64 64c35.4 0 64-28.6 64-64s-28.6-64-64-64zM704 832c0-35.34-28.6-64-64-64s-64 28.66-64 64c0 35.34 28.6 64 64 64s64-28.66 64-64zM640 384c-35.4 0-64 28.6-64 64s28.6 64 64 64c35.4 0 64-28.6 64-64s-28.6-64-64-64zM512 64c0-35.4-28.6-64-64-64s-64 28.6-64 64c0 35.4 28.6 64 64 64s64-28.6 64-64zM448 768c-35.4 0-64 28.66-64 64s28.6 64 64 64c35.4 0 64-28.66 64-64s-28.6-64-64-64zM512 448c0-35.4-28.6-64-64-64s-64 28.6-64 64c0 35.4 28.6 64 64 64s64-28.6 64-64zM832 0c-35.4 0-64 28.6-64 64s28.6 64 64 64c35.4 0 64-28.6 64-64s-28.6-64-64-64zM832 768c-35.4 0-64 28.66-64 64s28.6 64 64 64c35.4 0 64-28.66 64-64s-28.6-64-64-64zM128 832c0-35.34-28.66-64-64-64s-64 28.66-64 64c0 35.34 28.66 64 64 64s64-28.66 64-64zM832 384c-35.4 0-64 28.6-64 64s28.6 64 64 64c35.4 0 64-28.6 64-64s-28.6-64-64-64zM128 448c0-35.4-28.66-64-64-64s-64 28.6-64 64c0 35.4 28.66 64 64 64s64-28.6 64-64zM448 192c-35.4 0-64 28.6-64 64s28.6 64 64 64c35.4 0 64-28.6 64-64s-28.6-64-64-64zM896 256c0-35.4-28.6-64-64-64s-64 28.6-64 64c0 35.4 28.6 64 64 64s64-28.6 64-64zM64 192c-35.34 0-64 28.6-64 64s28.66 64 64 64c35.34 0 64-28.6 64-64s-28.66-64-64-64zM896 640c0-35.4-28.6-64-64-64s-64 28.6-64 64c0 35.4 28.6 64 64 64s64-28.6 64-64zM64 576c-35.34 0-64 28.6-64 64s28.66 64 64 64c35.34 0 64-28.6 64-64s-28.66-64-64-64zM512 640c0-35.4-28.6-64-64-64s-64 28.6-64 64c0 35.4 28.6 64 64 64s64-28.6 64-64z" />
<glyph unicode="&#xe97a;" glyph-name="border-top-left" horiz-adv-x="896" d="M0 736c0 88.36 71.64 160 160 160h672c35.4 0 64-28.66 64-64s-28.6-64-64-64h-672c-17.68 0-32-14.4-32-32v-672c0-35.4-28.66-64-64-64s-64 28.6-64 64v672zM256 0c-35.4 0-64 28.6-64 64s28.6 64 64 64c35.4 0 64-28.6 64-64s-28.6-64-64-64zM640 0c-35.4 0-64 28.6-64 64s28.6 64 64 64c35.4 0 64-28.6 64-64s-28.6-64-64-64zM512 64c0-35.4-28.6-64-64-64s-64 28.6-64 64c0 35.4 28.6 64 64 64s64-28.6 64-64zM832 0c-35.4 0-64 28.6-64 64s28.6 64 64 64c35.4 0 64-28.6 64-64s-28.6-64-64-64zM832 384c-35.4 0-64 28.6-64 64s28.6 64 64 64c35.4 0 64-28.6 64-64s-28.6-64-64-64zM896 256c0-35.4-28.6-64-64-64s-64 28.6-64 64c0 35.4 28.6 64 64 64s64-28.6 64-64zM832 576c-35.4 0-64 28.6-64 64s28.6 64 64 64c35.4 0 64-28.6 64-64s-28.6-64-64-64z" />
<glyph unicode="&#xe97b;" glyph-name="brain" d="M368 960c61.8 0 112-50.14 112-112v-800c0-61.8-50.2-112-112-112-57.8 0-105.4 43.8-111.4 100.2-10.4-2.8-21.4-4.2-32.6-4.2-70.7 0-128 57.4-128 128 0 14.8 2.54 29.2 7.18 42.4-60.32 22.8-103.18 81.2-103.18 149.6 0 63.8 37.42 119 91.54 144.6-17.24 21.8-27.54 51.2-27.54 79.4 0 61.4 43.18 112.6 100.82 125.2-3.14 11-4.82 22.8-4.82 34.8 0 59.88 41.2 110.16 96.6 124.14 6 56.14 53.6 99.86 111.4 99.86zM767.4 860.14c55.4-13.98 96.6-64.26 96.6-124.14 0-12-1.6-23.8-4.8-34.8 57.6-12.6 100.8-63.8 100.8-125.2 0-28.2-10.2-57.6-27.6-79.4 54.2-25.6 91.6-80.8 91.6-144.6 0-68.4-42.8-126.8-103.2-149.6 4.6-13.2 7.2-27.6 7.2-42.4 0-70.6-57.4-128-128-128-11.2 0-22.2 1.4-32.6 4.2-6-56.4-53.6-100.2-111.4-100.2-61.8 0-112 50.2-112 112v800c0 61.86 50.2 112 112 112 57.8 0 105.4-43.72 111.4-99.86z" />
<glyph unicode="&#xe97c;" glyph-name="bug" d="M704 768v-7.12c0-31.48-25.4-56.88-56.8-56.88h-270.4c-31.4 0-58.6 25.4-58.6 56.88v7.12c0 106.040 86 192 192 192 107.8 0 193.8-85.96 193.8-192zM82.74 749.2c25 25.040 65.52 25.040 90.52 0l127.94-128c1.4-1.2 2.6-2.6 3.8-4 28.6 14.6 60.8 22.8 93.2 22.8h225.8c34.2 0 66.4-8.2 95-22.8 1.2 1.4 2.4 2.8 3.8 4l128 128c25 25.040 65.4 25.040 90.4 0 25-25 25-65.4 0-90.4l-128-128c-3-1.4-2.6-2.6-4-3.8 12.2-24 20-50.8 22.2-79h128.6c35.4 0 64-28.6 64-64s-28.6-64-64-64h-128c0-49.2-11-95.6-30.8-137.2 4.2-2.6 8.4-5.8 12-9.6l128-128c25-25 25-65.4 0-90.4s-65.4-25-90.4 0l-126.2 126c-49-43.6-111.6-72.4-180.6-79.2v478.4c0 17.6-14.4 32-33.8 32-15.8 0-32-14.4-32-32v-478.4c-67.2 6.8-129.8 35.6-178.8 79.2l-126.14-126c-25-25-65.52-25-90.52 0-24.98 25-24.98 65.4 0 90.4l128.060 128c3.6 3.8 7.8 7 12 9.6-19.8 41.6-30.8 88-30.8 137.2h-128c-35.34 0-64 28.6-64 64s28.66 64 64 64h128.6c2.16 28.2 10 55 22.2 79-1.4 1.2-2.8 2.4-4 3.8l-128.060 128c-24.98 25-24.98 65.4 0 90.4v0z" />
<glyph unicode="&#xe97d;" glyph-name="bugs" horiz-adv-x="1152" d="M374.6 689.8h34l8.4 39.6c5.2 26 30.4 42.88 56.4 37.68s42.8-30.48 37.6-56.48l-16-80c-4.4-22.4-24.2-36.8-48.8-36.8h-64v-48.4l77.4-18.8c19-4.8 33.2-20.4 36-39.8l16-112c3.6-26.2-14.6-50.6-40.8-54.4-26.2-3.6-50.6 14.6-54.4 40.8l-11.4 80-36.8 9.2c-21.8-39.6-63.8-64.6-114-64.6-46.6 0-88.7 25-110.46 64.6l-36.78-9.2-11.44-80c-3.76-26.2-28.060-44.4-54.3-40.8-26.252 3.8-44.486 28.2-40.737 54.4l15.999 112c2.76 19.4 16.938 35 35.878 39.8l73.84 18.8v48.4h-64c-21.080 0-40.78 14.4-45.274 36.8l-16.001 80c-5.199 26 11.659 51.28 37.655 56.48 26 5.2 51.28-11.68 56.48-37.68l8.28-39.6h33.96c9.4 21.4 25.42 41.2 45.72 55.4l-66.72 146.96c-10.96 24.14-0.28 52.59 23.86 63.55s52.58 0.276 63.64-23.87l52.2-115.16 52.2 115.16c11 24.146 39.6 34.83 63.6 23.87 22.4-10.96 34.8-39.41 24-63.55l-66.8-146.96c20.2-14.2 36.2-34 45.6-55.4v0zM1003 314.6l29.4-17 27.8 31.8c17.6 20 47.8 21.8 66 4.4 21.6-17.6 23.6-47.8 6.2-66l-54-63c-15-17.2-40.2-21.4-60-10l-55.4 32-23.2-40.2 56-54.2c14-13.6 18.4-34.2 11.2-52.4l-42.2-105c-9.8-24.6-37.8-36.6-62.4-26.6-24.6 9.8-36.6 37.8-26.6 62.4l30 75-27.2 26.4c-40.4-23.4-88.6-25.6-130.4-1.4-42 24.2-65 68.4-64 113.6l-36.6 10.4-49.8-63.6c-16.4-20.8-46.6-24.4-67.4-8-20.8 16.2-24.6 46.4-8.2 67.4l69.8 89c12.2 15.2 32.2 21.8 51 18.2l75-23.2 23.2 40.2-55.4 32c-19.8 11.6-28.8 35.4-21.4 57l26.2 77.4c8.4 25 35.6 38.4 60.8 30 25-8.6 36.8-35.8 30-60.8l-15.2-40 31.2-17c19.6 15.4 43.4 24.6 68.2 28.4l15.6 158.8c2.6 26.4 26 45.8 52.4 43.2s45.8-26 43.2-52.4l-12.4-126 103 73.6c21.6 15.4 51.4 10.4 67-11 15.4-21.6 10.4-51.6-11.2-67l-133-94c12.2-22.4 16.2-47.6 12.8-72.4v0z" />
<glyph unicode="&#xe97e;" glyph-name="bug-slash" horiz-adv-x="1280" d="M478.2 634.4c17.2 5.4 33.2 5.6 49.8 5.6h224c34.2 0 66.4-8.2 95-22.8 1.2 1.4 2.4 2.8 3.8 4l128 128c25 25.040 65.4 25.040 90.4 0 25-25 25-65.4 0-90.4l-128-128c-3-1.4-2.6-2.6-4-3.8 12.2-24 20-50.8 22.2-79h128.6c35.4 0 64-28.6 64-64s-28.6-64-64-64h-128c0-19.8-1.8-39-5.2-57.8l306.8-240.4c20.8-16.4 24.6-46.6 8.2-67.4s-46.6-24.6-67.4-8.2l-1184.008 928.020c-20.864 16.36-24.522 46.52-8.168 67.388 16.356 20.864 46.516 24.522 67.396 8.168l400.58-315.376zM832 768v-7.12c0-31.48-25.4-56.88-56.8-56.88h-270.4c-31.4 0-56.8 25.4-56.8 56.88v7.12c0 106.040 84.2 191.998 192 191.998 106 0 192-85.958 192-191.998v0zM320.6 448c1.6 21.8 6 39.4 12.8 57.4l274.6-216.4v-287.4c-69 6.8-131.6 35.6-180.6 79.2l-126.2-126c-25-25-65.4-25-90.4 0-25.040 25-25.040 65.4 0 90.4l128 128c3.6 3.8 7.8 7 12 9.6-19.8 41.6-30.8 88-30.8 137.2h-128c-35.34 0-64 28.6-64 64s28.66 64 64 64h128.6zM672 1.6v237l189.6-149.4c-50.2-48.4-116.2-80.4-189.6-87.6v0z" />
<glyph unicode="&#xe980;" glyph-name="burger" d="M963.8 419.8c18-18 28.2-42.4 28.2-67.8s-10.2-49.8-28.2-67.8c-18-18-42.4-28.2-67.8-28.2h-768c-25.46 0-49.88 10.2-67.88 28.2s-28.12 42.4-28.12 67.8c0 25.4 10.12 49.8 28.12 67.8s42.42 28.2 67.88 28.2h768c25.4 0 49.8-10.2 67.8-28.2zM950.6 182.6c6-6 9.4-14.2 9.4-22.6v-32c0-32.2-13.4-66.6-37.4-90.6s-58.4-37.4-90.6-37.4h-640c-33.94 0-66.5 13.4-90.5 37.4-24.020 24-37.5 58.4-37.5 90.6v32c0 8.4 3.38 16.6 9.38 22.6s14.14 9.4 22.62 9.4h832c8.4 0 16.6-3.4 22.6-9.4zM100.78 518.4c-8.92 4.4-16.72 10.6-22.84 18.4s-10.36 16.8-12.44 26.4c-2.080 9.8-1.9 19.8 0.48 29.4 43.98 173.36 227.020 303.4 446.020 303.4s402-130.040 446-303.4c2.4-9.6 2.6-19.6 0.4-29.4-2-9.6-6.2-18.6-12.4-26.4-7.8-7.8-13.8-14-22.8-18.4-8.8-4.2-18.6-6.4-28.6-6.4h-765.26c-9.88 0-19.66 2.2-28.56 6.4zM745.4 726.6c-6-6-9.4-14.2-9.4-22.6 0-6.4 1.8-12.6 5.4-17.8s6.8-9.4 14.4-11.8c5.8-0.6 12.2-3 18.4-1.8s12 4.2 16.4 8.8c4.6 4.4 7.6 10.2 8.8 16.4s-1.2 12.6-1.8 18.4c-2.4 7.6-6.6 10.8-11.8 14.4s-11.4 7.2-17.8 7.2c-8.4 0-16.6-5.2-22.6-11.2v0zM489.4 790.62c-6-6-9.4-14.14-9.4-22.62 0-6.32 1.8-12.6 5.4-17.8s6.8-9.4 14.4-11.8c5.8-0.6 12.2-3 18.4-1.8s12 4.2 16.4 8.8c4.6 4.4 7.6 10.2 8.8 16.36 1.2 6.2-1.2 12.64-1.8 18.48-2.4 5.86-6.6 10.86-11.8 14.36-5.2 3.52-11.4 7.2-17.8 7.2-8.4 0-16.6-5.18-22.6-11.18v0zM233.4 726.6c-6-6-9.4-14.2-9.4-22.6 0-6.4 1.8-12.6 5.4-17.8s6.8-9.4 14.4-11.8c5.8-0.6 12.2-3 18.4-1.8s12 4.2 16.4 8.8c4.6 4.4 7.6 10.2 8.8 16.4s-1.2 12.6-1.8 18.4c-2.4 7.6-6.6 10.8-11.8 14.4s-11.4 7.2-17.8 7.2c-8.4 0-16.6-5.2-22.6-11.2v0z" />
<glyph unicode="&#xe981;" glyph-name="burst" d="M401.8 727.6l64.6 199.2c6.4 19.788 24.8 33.198 45.6 33.198s39.2-13.41 45.6-33.198l69-213 141 51.3c17.6 6.38 37.2 2.040 48.6-11.1 15-13.2 19.2-32.8 13-50.4l-51.4-141 213-69c19.8-6.4 33.2-24.8 33.2-45.6s-13.4-39.2-33.2-45.6l-206.2-66.8 105.8-201.2c9.8-18.6 6.4-41.4-10.2-54.6-13.2-16.6-36-20-54.6-10.2l-201.2 105.8-66.8-206.2c-6.4-19.8-24.8-33.2-45.6-33.2s-39.2 13.4-45.6 33.2l-66.8 206.2-201.26-105.8c-18.6-9.8-41.42-6.4-56.28 10.2-14.86 13.2-18.32 36-8.54 54.6l105.88 201.2-206.2 66.8c-19.79 6.4-33.199 24.8-33.199 45.6s13.409 39.2 33.199 45.6l199.2 64.6-223.984 326.66c-13.076 19.060-10.702 44.74 5.644 61.080 16.34 16.348 42.020 18.72 61.080 5.644l326.66-223.984z" />
<glyph unicode="&#xe987;" glyph-name="caret-down" horiz-adv-x="640" d="M621.2 466.8l-254.2-256c-14.2-12.6-30.6-18.8-47-18.8s-32.76 6.25-45.26 18.75l-254.2 256c-20.091 18.25-25.572 45.85-15.664 69.65s33.264 39.6 59.124 39.6h510.2c25.88 0 49.24-15.562 59.16-39.5s6.24-51.5-12.16-69.7z" />
<glyph unicode="&#xe988;" glyph-name="caret-left" horiz-adv-x="512" d="M274.8 146.8l-256 254.2c-12.55 14.2-18.8 30.6-18.8 48.8s6.25 32.76 18.75 45.26l256 254.2c18.312 18.312 45.82 23.8 69.76 13.886s39.49-33.346 39.49-59.146v-510.2c0-25.88-15.562-49.24-39.5-59.16s-51.5-6.24-69.7 12.16z" />
<glyph unicode="&#xe989;" glyph-name="caret-right" horiz-adv-x="512" d="M237.2 749.2l256-254.2c12.6-14.2 18.8-30.6 18.8-45.2s-6.25-32.76-18.75-45.26l-256-254.2c-18.312-18.312-45.82-23.8-69.76-13.886s-39.49 29.746-39.49 57.346v510.2c0 25.88 15.562 49.24 39.5 59.16s51.5 4.38 69.7-13.96z" />
<glyph unicode="&#xe98a;" glyph-name="caret-up" horiz-adv-x="640" d="M18.78 429.2l254.2 256c14.22 12.6 30.62 18.8 47.020 18.8s32.76-6.25 45.26-18.75l254.2-256c18.312-18.312 23.8-45.82 13.886-69.76s-31.546-39.49-59.146-39.49h-510.18c-25.88 0-49.24 15.562-59.16 39.5s-4.393 51.5 13.92 69.7z" />
<glyph unicode="&#xe98b;" glyph-name="chart-area" d="M128 160c0-17.6 14.32-32 32-32h800c35.4 0 64-28.6 64-64s-28.6-64-64-64h-800c-88.36 0-160 71.6-160 160v672c0 35.34 28.66 64 64 64s64-28.66 64-64v-672zM256 320v168c0 15.4 5.6 30.4 15.8 43.8l158.8 179.8c26 29.6 72.2 29 95.6-1.2l80.2-94c18-21.8 50.8-23.2 70.8-3.2l42 42c26.2 26.2 69.6 24.6 93.8-3.6l131.6-153.6c10-11.6 15.4-26.4 15.4-41.6v-136.4c0-35.4-28.6-64-64-64h-577.8c-33.6 0-64 28.6-64 64h1.8z" />
<glyph unicode="&#xe98c;" glyph-name="chart-bar" d="M64 896c35.34 0 64-28.66 64-64v-672c0-17.6 14.32-32 32-32h800c35.4 0 64-28.6 64-64s-28.6-64-64-64h-800c-88.36 0-160 71.6-160 160v672c0 35.34 28.66 64 64 64zM256 704c0 35.4 28.6 64 64 64h384c35.4 0 64-28.6 64-64s-28.6-64-64-64h-384c-35.4 0-64 28.6-64 64zM576 576c35.4 0 64-28.6 64-64s-28.6-64-64-64h-256c-35.4 0-64 28.6-64 64s28.6 64 64 64h256zM832 384c35.4 0 64-28.6 64-64s-28.6-64-64-64h-512c-35.4 0-64 28.6-64 64s28.6 64 64 64h512z" />
<glyph unicode="&#xe98d;" glyph-name="chart-column" d="M64 896c35.34 0 64-28.66 64-64v-672c0-17.6 14.32-32 32-32h800c35.4 0 64-28.6 64-64s-28.6-64-64-64h-800c-88.36 0-160 71.6-160 160v672c0 35.34 28.66 64 64 64zM320 512c35.4 0 64-28.6 64-64v-128c0-35.4-28.6-64-64-64s-64 28.6-64 64v128c0 35.4 28.6 64 64 64zM576 320c0-35.4-28.6-64-64-64s-64 28.6-64 64v320c0 35.4 28.6 64 64 64s64-28.6 64-64v-320zM704 576c35.4 0 64-28.6 64-64v-192c0-35.4-28.6-64-64-64s-64 28.6-64 64v192c0 35.4 28.6 64 64 64zM960 320c0-35.4-28.6-64-64-64s-64 28.6-64 64v448c0 35.34 28.6 64 64 64s64-28.66 64-64v-448z" />
<glyph unicode="&#xe98e;" glyph-name="chart-gantt" d="M64 896c35.34 0 64-28.66 64-64v-672c0-17.6 14.32-32 32-32h800c35.4 0 64-28.6 64-64s-28.6-64-64-64h-800c-88.36 0-160 71.6-160 160v672c0 35.34 28.66 64 64 64zM256 704c0 35.4 28.6 64 64 64h192c35.4 0 64-28.6 64-64s-28.6-64-64-64h-192c-35.4 0-64 28.6-64 64zM704 576c35.4 0 64-28.6 64-64s-28.6-64-64-64h-256c-35.4 0-64 28.6-64 64s28.6 64 64 64h256zM896 384c35.4 0 64-28.6 64-64s-28.6-64-64-64h-128c-35.4 0-64 28.6-64 64s28.6 64 64 64h128z" />
<glyph unicode="&#xe98f;" glyph-name="chart-line" d="M128 160c0-17.6 14.32-32 32-32h800c35.4 0 64-28.6 64-64s-28.6-64-64-64h-800c-88.36 0-160 71.6-160 160v672c0 35.34 28.66 64 64 64s64-28.66 64-64v-672zM685.2 402.8c-25-25-65.4-25-90.4 0l-114.8 114.6-178.8-178.6c-25-25-65.4-25-90.4 0-25.040 25-25.040 65.4 0 90.4l224 224c25 25 65.4 25 90.4 0l114.8-114.6 210.8 210.6c25 25.040 65.4 25.040 90.4 0 25-25 25-65.4 0-90.4l-256-256z" />
<glyph unicode="&#xe990;" glyph-name="chart-pie" horiz-adv-x="1152" d="M608 926.84c0 18.050 12.2 33.16 32 33.16 247.4 0 448-200.6 448-448 0-18-15.2-32-33.2-32h-446.8v446.84zM64 416c0 242.6 180.2 443.32 412.2 475.5 20.2 2.52 35.8-12.22 35.8-30.72v-476.78l313-313c13.4-13.4 12.4-35.4-3-46.4-78.4-55.8-174.4-88.6-278-88.6-265 0-480 214.8-480 480zM1116.8 384c18.4 0 33.2-15.6 30.8-34-15.4-111.8-69.4-211.2-147.8-284.6-12-9.6-30.8-10.4-42.4 1.2l-317.4 317.4h476.8z" />
<glyph unicode="&#xe991;" glyph-name="chart-simple" horiz-adv-x="896" d="M320 800c0 53.020 43 96 96 96h64c53 0 96-42.98 96-96v-704c0-53-43-96-96-96h-64c-53 0-96 43-96 96v704zM0 416c0 53 42.98 96 96 96h64c53 0 96-43 96-96v-320c0-53-43-96-96-96h-64c-53.020 0-96 43-96 96v320zM800 768c53 0 96-43 96-96v-576c0-53-43-96-96-96h-64c-53 0-96 43-96 96v576c0 53 43 96 96 96h64z" />
<glyph unicode="&#xe992;" glyph-name="check" horiz-adv-x="896" d="M877.2 749.2c25-25 25-65.4 0-90.4l-512-512c-25-25-65.4-25-90.4 0l-256.056 256c-24.992 25-24.992 65.4 0 90.4 24.996 25 65.516 25 90.516 0l208.94-210.6 468.6 466.6c25 25.040 65.4 25.040 90.4 0v0z" />
<glyph unicode="&#xe993;" glyph-name="chevron-down" horiz-adv-x="896" d="M448 128c-16.376 0-32.76 6.25-45.24 18.75l-384 384c-25 25-25 65.5 0 90.5s65.5 25 90.5 0l338.74-338.85 338.8 338.8c25 25 65.5 25 90.5 0s25-65.5 0-90.5l-384-384c-12.5-12.5-28.9-18.7-45.3-18.7z" />
<glyph unicode="&#xe994;" glyph-name="chevron-left" horiz-adv-x="640" d="M448 0c-16.376 0-32.76 6.25-45.24 18.75l-384 384c-25 25-25 65.5 0 90.5l384 384c25 25 65.5 25 90.5 0s25-65.5 0-90.5l-338.76-338.75 338.8-338.8c25-25 25-65.5 0-90.5-12.5-12.5-28.9-18.7-45.3-18.7z" />
<glyph unicode="&#xe995;" glyph-name="chevron-right" horiz-adv-x="640" d="M192 0c-16.376 0-32.76 6.25-45.24 18.75-25 25-25 65.5 0 90.5l338.84 338.75-338.84 338.74c-25 25-25 65.5 0 90.5s65.5 25 90.5 0l384-384c25-25 25-65.5 0-90.5l-384-384c-12.46-12.54-28.86-18.74-45.26-18.74z" />
<glyph unicode="&#xe996;" glyph-name="chevron-up" horiz-adv-x="896" d="M832 256c-16.376 0-32.76 6.25-45.24 18.75l-338.76 338.65-338.8-338.8c-25-25-65.5-25-90.5 0s-25 65.5 0 90.5l384 384c25 25 65.5 25 90.5 0l384-384c25-25 25-65.5 0-90.5-12.4-12.4-28.8-18.6-45.2-18.6z" />
<glyph unicode="&#xe997;" glyph-name="circle" d="M1024 448c0-282.8-229.2-512-512-512s-512 229.2-512 512c0 282.8 229.2 512 512 512s512-229.2 512-512z" />
<glyph unicode="&#xe998;" glyph-name="circle-arrow-down" d="M512 960c-282.8 0-512-229.2-512-512s229.2-512 512-512 512 229.2 512 512c0 282.8-229.2 512-512 512zM765.2 354.8l-206.2-206.2c-17.6-17.8-37.2-20.6-47-20.6-9.762 0-29.3 2.782-45.3 18.796l-207.9 208.004c-25 25-25 65.5 0 90.5s65.5 25 90.5 0l98.7-98.9v357.6c0 35.38 28.66 64 64 64s64-28.62 64-64v-357.6l98.76 98.76c25 25 65.5 25 90.5 0s24.94-65.36-0.060-90.36z" />
<glyph unicode="&#xe999;" glyph-name="circle-arrow-left" d="M512 960c-282.8 0-512-229.2-512-512s229.2-512 512-512 512 229.2 512 512c0 282.8-229.2 512-512 512zM768 384h-357.4l98.76-98.76c25-25 25-65.5 0-90.5s-65.5-25-90.5 0l-208.060 208.060c-16 15.8-18.8 35.4-18.8 45.2 0 9.766 2.782 29.32 18.796 45.3l206.2 206.2c25 25 65.5 25 90.5 0s25-65.5 0-90.5l-96.896-97h357.4c35.38 0 64-28.66 64-64s-28.6-64-64-64z" />
<glyph unicode="&#xe99a;" glyph-name="circle-arrow-right" d="M512 960c-282.8 0-512-229.2-512-512s229.2-512 512-512 512 229.2 512 512c0 282.8-229.2 512-512 512zM813.2 402.8l-206.2-206.2c-25-25-65.5-25-90.5 0s-25 65.5 0 90.5l97.1 96.9h-357.6c-35.4 0-64 28.6-64 64s28.62 64 64 64h357.6l-98.76 98.76c-25 25-25 65.5 0 90.5s65.5 25 90.5 0l206.2-206.2c17.66-17.66 20.46-37.26 20.46-47.060s-2.8-29.4-18.8-45.2z" />
<glyph unicode="&#xe99b;" glyph-name="circle-arrow-up" d="M512 960c-282.8 0-512-229.2-512-512s229.2-512 512-512 512 229.2 512 512c0 282.8-229.2 512-512 512zM765.2 450.8c-25-25-65.5-25-90.5 0l-98.7 98.6v-357.4c0-35.38-28.66-64-64-64s-64 28.62-64 64v357.4l-98.8-98.6c-25-25-65.5-25-90.5 0s-25 65.5 0 90.5l206.2 206.2c17.7 17.7 37.3 20.5 47.1 20.5 9.762 0 29.3-2.782 45.3-18.796l206.2-206.2c26.7-26.804 26.7-67.204 1.7-92.204z" />
<glyph unicode="&#xe99c;" glyph-name="circle-check" d="M0 448c0 282.8 229.2 512 512 512s512-229.2 512-512c0-282.8-229.2-512-512-512s-512 229.2-512 512zM743.6 536.4c21.8 21.8 21.8 57.4 0 79.2s-57.4 21.8-79.2 0l-216.4-216.4-88.4 88.4c-21.8 21.8-57.4 21.8-79.2 0s-21.8-57.4 0-79.2l128-128c21.8-21.8 57.4-21.8 79.2 0l256 256z" />
<glyph unicode="&#xe99d;" glyph-name="circle-chevron-down" d="M512 960c-282.8 0-512-229.2-512-512s229.2-512 512-512 512 229.2 512 512c0 282.8-229.2 512-512 512zM781.2 466.8l-224-224c-12.4-12.6-28.8-18.8-45.2-18.8s-32.76 6.25-45.24 18.75l-224 224c-25 25-25 65.5 0 90.5s65.5 25 90.5 0l178.74-178.85 178.76 178.76c25 25 65.5 25 90.5 0s24.94-65.36-0.060-90.36z" />
<glyph unicode="&#xe99e;" glyph-name="circle-chevron-left" d="M512 960c-282.8 0-512-229.2-512-512s229.2-512 512-512 512 229.2 512 512c0 282.8-229.2 512-512 512zM621.2 269.2c25-25 25-65.5 0-90.5s-65.5-25-90.5 0l-224 224c-12.5 12.5-18.7 28.9-18.7 45.3s6.25 32.76 18.75 45.24l224 224c25 25 65.5 25 90.5 0s25-65.5 0-90.5l-178.65-178.74 178.6-178.8z" />
<glyph unicode="&#xe99f;" glyph-name="circle-chevron-right" d="M512 960c-282.8 0-512-229.2-512-512s229.2-512 512-512 512 229.2 512 512c0 282.8-229.2 512-512 512zM717.2 402.8l-224-224c-25-25-65.5-25-90.5 0s-25 65.5 0 90.5l178.9 178.7-178.8 178.8c-25 25-25 65.5 0 90.5s65.5 25 90.5 0l224-224c12.5-12.5 18.7-28.9 18.7-45.3s-6.2-32.8-18.8-45.2z" />
<glyph unicode="&#xe9a0;" glyph-name="circle-chevron-up" d="M512 960c-282.8 0-512-229.2-512-512s229.2-512 512-512 512 229.2 512 512c0 282.8-229.2 512-512 512zM781.2 338.8c-25-25-65.5-25-90.5 0l-178.7 178.6-178.8-178.6c-25-25-65.5-25-90.5 0s-25 65.5 0 90.5l224 224c12.5 12.5 28.9 18.7 45.3 18.7s32.76-6.25 45.24-18.75l224-224c24.96-25.050 24.96-65.45-0.040-90.45z" />
<glyph unicode="&#xe9a1;" glyph-name="circle-dot" d="M0 448c0 282.8 229.2 512 512 512s512-229.2 512-512c0-282.8-229.2-512-512-512s-512 229.2-512 512zM512 256c106 0 192 86 192 192 0 107.8-86 192-192 192-107.8 0-192-84.2-192-192 0-106 84.2-192 192-192z" />
<glyph unicode="&#xe9a2;" glyph-name="circle-down" d="M512-64c282.8 0 512 229.2 512 512s-229.2 512-512 512c-282.8 0-512-229.2-512-512s229.2-512 512-512zM258.4 428.2c5 12 16.6 19.8 29.6 19.8h128v192c0 35.34 28.66 64 64 64h64c35.34 0 64-28.66 64-64v-192h128c12.938 0 24.62-7.782 29.56-19.75 4.968-11.968 2.218-25.72-6.938-34.88l-224-224c-12.496-12.496-32.76-12.496-45.24 0l-224 224c-9.182 9.23-11.982 22.83-6.982 34.83z" />
<glyph unicode="&#xe9a3;" glyph-name="circle-exclamation" d="M512 960c-282.8 0-512-229.2-512-512s229.2-512 512-512 512 229.2 512 512-229.2 512-512 512zM464 656c0 26.4 21.6 48 48 48s48-21.5 48-48v-256c0-26.5-21.5-48-48-48s-48 21.4-48 48v256zM512 160c-34.72 0-62.88 28.16-62.88 62.88s28.14 62.88 62.88 62.88 62.88-28.16 62.88-62.88c-0.080-34.68-28.080-62.88-62.88-62.88z" />
<glyph unicode="&#xe9a4;" glyph-name="circle-half-stroke" d="M1024 448c0-282.8-229.2-512-512-512s-512 229.2-512 512c0 282.8 229.2 512 512 512s512-229.2 512-512zM512 832v-768c212 0 384 172 384 384 0 213.8-172 384-384 384z" />
<glyph unicode="&#xe9a5;" glyph-name="circle-info" d="M512 960c-282.8 0-512-229.2-512-512s229.2-512 512-512 512 229.2 512 512-229.2 512-512 512zM512 704c35.34 0 64-28.66 64-64s-28.66-64-64-64-64 28.6-64 64c0 35.4 28.6 64 64 64zM592 192h-160c-26.4 0-48 21.4-48 48s21.5 48 48 48h32v128h-16c-26.5 0-48 21.5-48 48s21.6 48 48 48h64c26.5 0 48-21.5 48-48v-176h32c26.5 0 48-21.5 48-48s-21.4-48-48-48z" />
<glyph unicode="&#xe9a6;" glyph-name="circle-left" d="M0 448c0-282.8 229.2-512 512-512s512 229.2 512 512c0 282.8-229.2 512-512 512s-512-229.2-512-512zM492.2 701.6c12-5 19.8-16.6 19.8-29.6v-128h192c35.34 0 64-28.66 64-64v-64c0-35.34-28.66-64-64-64h-192v-128c0-12.938-7.782-24.62-19.75-29.56-11.968-4.968-25.72-2.218-34.88 6.938l-224 224c-12.496 12.496-12.496 32.76 0 45.24l224 224c9.23 9.182 22.83 11.982 34.83 6.982z" />
<glyph unicode="&#xe9a7;" glyph-name="circle-minus" d="M0 448c0 282.8 229.2 512 512 512s512-229.2 512-512c0-282.8-229.2-512-512-512s-512 229.2-512 512zM336 496c-26.6 0-48-21.4-48-48s21.4-48 48-48h352c26.6 0 48 21.4 48 48s-21.4 48-48 48h-352z" />
<glyph unicode="&#xe9a8;" glyph-name="circle-nodes" d="M761.2 228.8c41-28.6 70.8-77.4 70.8-132.8 0-88.4-71.6-160-160-160s-160 71.6-160 160c0 16.8 2.6 33.2 7.4 48.4l-291.2 254.8c-20.6-9.8-43.78-15.2-68.2-15.2-88.36 0-160 71.6-160 160s71.64 160 160 160c43.8 0 83.4-17.6 112.4-46.2l367.6 147.16c2.6 86.080 73.2 155.040 160 155.040 88.4 0 160-71.64 160-160 0-75.8-52.6-139.2-123.2-155.8l-75.6-415.4zM312.6 495.6l291.2-254.8c10 4.6 20.4 8.4 31.4 11l75.6 415.4c-8.4 5.6-16 12-23.2 19l-369.4-147.2c1.2-15-1.2-29.6-5.6-43.4v0z" />
<glyph unicode="&#xe9a9;" glyph-name="circle-notch" d="M445.4 895.7c10-33.86-9.2-69.5-43.2-79.58-158.6-47.22-274.2-194.32-274.2-366.32 0-213.8 170.2-384 384-384 212 0 384 170.2 384 384 0 172-115.6 319.1-274.2 366.32-34 10.080-53.2 45.72-43.2 79.58 10.2 33.88 45.8 53.176 79.6 43.1 211.6-62.94 365.8-257 365.8-489 0-284.6-229.2-512-512-512s-512 227.4-512 512c0 232 154.3 426.060 365.8 489 33.8 10.076 69.4-9.22 79.6-43.1v0z" />
<glyph unicode="&#xe9aa;" glyph-name="circle-pause" d="M512 960c-282.8 0-512-229.2-512-512s229.2-512 512-512 512 229.2 512 512-229.2 512-512 512zM448 577.8v-256c0-37.2-28.6-65.8-64-65.8s-64 28.6-64 64v257.8c0 33.6 28.6 62.2 62.2 62.2s65.8-28.6 65.8-62.2zM704 577.8v-256c0-37.2-28.6-65.8-64-65.8s-64 28.6-64 64v257.8c0 33.6 28.6 62.2 62.2 62.2s65.8-28.6 65.8-62.2z" />
<glyph unicode="&#xe9ab;" glyph-name="circle-play" d="M1024 448c0-282.8-229.2-512-512-512s-512 229.2-512 512c0 282.8 229.2 512 512 512s512-229.2 512-512zM352 624v-352c0-17.4 9.4-33.4 24.6-41.8 15-8.6 33.6-8.2 48.4 0.8l288 176c14.2 8.8 23 24.2 23 41s-8.8 32.2-23 41l-288 176c-14.8 10.8-33.4 9.4-48.4 0.8-15.2-8.4-24.6-24.4-24.6-41.8v0z" />
<glyph unicode="&#xe9ac;" glyph-name="circle-plus" d="M0 448c0 282.8 229.2 512 512 512s512-229.2 512-512c0-282.8-229.2-512-512-512s-512 229.2-512 512zM512 224c26.6 0 48 21.4 48 48v128h128c26.6 0 48 21.4 48 48s-21.4 48-48 48h-128v128c0 26.6-21.4 48-48 48s-48-21.4-48-48v-128h-128c-26.6 0-48-21.4-48-48s21.4-48 48-48h128v-128c0-26.6 21.4-48 48-48z" />
<glyph unicode="&#xe9ad;" glyph-name="circle-question" d="M512 960c-282.8 0-512-229.2-512-512s229.2-512 512-512 512 229.2 512 512-229.2 512-512 512zM512 160c-36 0-64 28-64 64s26.2 64 64 64c34.2 0 64-28 64-64s-29.8-64-64-64zM650.2 444l-90.2-56v-4c0-26-22-48-48-48s-48 22-48 48v32c0 16 8 32 24 42l114 68c14 8 22 22 22 38 0 24-21.8 44-45.8 44h-102.2c-25.8 0-44-20-44-44 0-26-22-48-48-48s-48 22-48 48c0 78 62 140 138.2 140h102.2c81.6 0 143.6-62 143.6-140 0-48-26-94-69.8-120z" />
<glyph unicode="&#xe9ae;" glyph-name="circle-right" d="M1024 448c0 282.8-229.2 512-512 512s-512-229.2-512-512c0-282.8 229.2-512 512-512s512 229.2 512 512zM531.8 194.4c-12 5-19.8 16.6-19.8 29.6v128h-192c-35.34 0-64 28.66-64 64v64c0 35.34 28.66 64 64 64h192v128c0 12.938 7.782 24.62 19.75 29.56 11.968 4.968 25.72 2.218 34.88-6.938l224-224c12.496-12.496 12.496-32.76 0-45.24l-224-224c-9.23-9.182-22.83-11.982-34.83-6.982z" />
<glyph unicode="&#xe9af;" glyph-name="circle-stop" d="M512 960c-282.8 0-512-229.2-512-512s229.2-512 512-512 512 229.2 512 512c0 282.8-229.2 512-512 512zM704 304c0-26.4-21.6-48-48-48h-288c-26.4 0-48 21.6-48 48v288c0 26.4 21.6 48 48 48h288c26.4 0 48-21.6 48-48v-288z" />
<glyph unicode="&#xe9b0;" glyph-name="circle-up" d="M512 960c-282.8 0-512-229.2-512-512s229.2-512 512-512c282.8 0 512 229.2 512 512s-229.2 512-512 512zM765.6 467.8c-5-12-16.6-19.8-29.6-19.8h-128v-192c0-35.34-28.66-64-64-64h-64c-35.34 0-64 28.66-64 64v192h-128c-13 0-24.6 7.8-29.6 19.8s-2.2 25.6 7 34.8l224 224c12.496 12.496 32.76 12.496 45.24 0l224-224c9.16-9.2 11.96-22.8 6.96-34.8z" />
<glyph unicode="&#xe9b1;" glyph-name="circle-xmark" d="M0 448c0 282.8 229.2 512 512 512s512-229.2 512-512c0-282.8-229.2-512-512-512s-512 229.2-512 512zM350 543.8l94.2-94-94.2-95.8c-18.6-18.8-18.6-49.2 0-66.2 18.8-20.4 49.2-20.4 66.2 0l94 92.4 95.8-92.4c18.8-20.4 49.2-20.4 66.2 0 20.4 17 20.4 47.4 0 66.2l-92.4 95.8 92.4 94c20.4 17 20.4 47.4 0 66.2-17 18.6-47.4 18.6-66.2 0l-95.8-94.2-94 94.2c-17 18.6-47.4 18.6-66.2 0-18.6-18.8-18.6-49.2 0-66.2v0z" />
<glyph unicode="&#xe9b2;" glyph-name="clipboard" horiz-adv-x="768" d="M672 832h-107.76c-26.44 74.4-96.84 128-180.24 128s-153.8-53.6-180.2-128h-107.8c-53 0-96-42.96-96-96v-704c0-53 43-96 96-96h576c53 0 96 42.96 96 96v704c0 53.040-43 96-96 96zM384 832c35.34 0 64-28.66 64-64s-28.66-64-64-64-64 28.6-64 64c0 35.34 28.6 64 64 64zM544 512h-320c-17.6 0-32 14.4-32 32s14.4 32 32 32h320c17.6 0 32-14.4 32-32s-14.4-32-32-32z" />
<glyph unicode="&#xe9b3;" glyph-name="clipboard-check" horiz-adv-x="768" d="M672 832h-107.76c-26.44 74.4-96.84 128-180.24 128s-153.8-53.6-180.2-128h-107.8c-53 0-96-42.96-96-96v-704c0-53 43-96 96-96h576c53 0 96 42.96 96 96v704c0 53.040-43 96-96 96zM384 832c35.34 0 64-28.66 64-64s-28.66-64-64-64-64 28.6-64 64 28.6 64 64 64zM565.8 434.4l-176-224c-8.094-10.312-20.040-16.876-33.060-18.124-1.54 1.524-3.14-0.276-4.74-0.276-11.406 0-22.5 4.062-31.24 11.562l-112 96c-20.12 17.25-22.44 47.56-5.188 67.68 17.218 20.12 47.54 22.44 67.68 5.188l73.96-63.38 145.040 184.56c16.376 20.88 46.6 24.44 67.4 8.124 20.948-16.334 24.548-46.534 8.148-67.334z" />
<glyph unicode="&#xe9b4;" glyph-name="clipboard-list" horiz-adv-x="768" d="M672 832h-107.76c-26.44 74.4-96.84 128-180.24 128s-153.8-53.6-180.2-128h-107.8c-53 0-96-42.96-96-96v-704c0-53 43-96 96-96h576c53 0 96 42.96 96 96v704c0 53.040-43 96-96 96zM192 176c-26.5 0-48 21.5-48 48s21.5 48 48 48 48-21.5 48-48-21.4-48-48-48zM192 368c-26.5 0-48 21.5-48 48s21.5 48 48 48 48-21.6 48-48-21.4-48-48-48zM384 832c35.34 0 64-28.66 64-64s-28.66-64-64-64-64 28.6-64 64c0 35.34 28.6 64 64 64zM608 192h-256c-17.6 0-32 14.4-32 32s14.4 32 32 32h256c17.602 0 32-14.398 32-32 0-17.6-14.4-32-32-32zM608 384h-256c-17.6 0-32 14.4-32 32s14.4 32 32 32h256c17.6 0 32-14.4 32-32s-14.4-32-32-32z" />
<glyph unicode="&#xe9b5;" glyph-name="clipboard-question" horiz-adv-x="768" d="M565 832h75c70.6 0 128-57.3 128-128v-640c0-70.6-57.4-128-128-128h-512c-70.7 0-128 57.4-128 128v640c0 70.7 57.3 128 128 128h75c26.2 74.58 97.4 128 181 128s154.8-53.42 181-128zM384 704c35.4 0 64 28.6 64 64 0 35.34-28.6 64-64 64s-64-28.66-64-64c0-35.4 28.6-64 64-64zM210.8 499c-9-25 4.2-52.4 27.4-61.4 26.8-8.8 54.2 4.2 63 29.2l1 2.6c2.2 6.4 8.2 10.6 15 10.6h116.6c16.6 0 30.2-13.6 30.2-30.2 0-11-5.8-21-15.2-26.4l-88.6-50.8c-15-8.6-24.2-24.4-24.2-41.6v-27c0-26.6 21.4-48 48-48 26.2 0 47.6 21 46.2 47.2l66.4 37c39.2 22.4 63.4 64.2 63.4 109.6 0 69.6-56.6 126.2-126.2 126.2h-116.6c-47.4 0-89.6-29.8-105.6-74.6l-0.8-2.4zM384 192c-35.4 0-64-28.6-64-64s28.6-64 64-64c35.4 0 64 28.6 64 64s-28.6 64-64 64z" />
<glyph unicode="&#xe9b6;" glyph-name="clock" d="M512-64c-282.8 0-512 229.2-512 512s229.2 512 512 512c282.8 0 512-229.2 512-512s-229.2-512-512-512zM464 448c0-16 8-31 21.4-38.2l192-128c22-16.4 51.8-10.4 64.8 11.6 16.4 22 10.4 51.8-11.6 66.6l-170.6 113.6v246.4c0 26.6-21.4 48-49.8 48-24.8 0-48-21.4-48-48l1.8-272z" />
<glyph unicode="&#xe9b7;" glyph-name="clock-rotate-left" d="M512 960c282.8 0 512-229.2 512-512s-229.2-512-512-512c-108.6 0-209.6 34-292.6 91.8-29 22-36.12 60.2-15.8 89.2 20.2 29 60 36 89 15.8 62.2-43.4 137.8-68.8 219.4-68.8 212 0 384 172 384 384 0 213.8-172 384-384 384-107.8 0-202-42.92-271.6-112.4l61.6-61.6c30.2-30.2 8.8-82-33.8-82h-220.2c-26.5 0-48 21.4-48 48v220.12c0 42.76 51.7 64.18 81.94 33.94l68.020-68.020c92.64 92.58 220.64 149.96 360.24 149.96h1.8zM512 704c26.6 0 48-21.4 48-48v-188.2l128.2-129.8c20.4-18.8 20.4-49.2 0-66.2-17-20.4-47.4-20.4-66.2 0l-144 144c-9 7.2-14 19.4-14 32.2v208c0 26.6 21.4 48 48 48v0z" />
<glyph unicode="&#xe9b8;" glyph-name="clone" d="M0 512c0 70.6 57.3 128 128 128h128v-256c0-106 84.2-192 192-192h256v-128c0-70.6-57.4-128-128-128h-448c-70.7 0-128 57.4-128 128v448zM448 256c-70.6 0-128 57.4-128 128v448c0 70.7 57.4 128 128 128h448c70.6 0 128-57.3 128-128v-448c0-70.6-57.4-128-128-128h-448z" />
<glyph unicode="&#xe9b9;" glyph-name="cloud" horiz-adv-x="1280" d="M192.4 559.8c-0.26 5.4-0.4 10.8-0.4 16.2 0 176.8 143.2 320 320 320 118.6 0 222-64.5 277.4-160.4 30.4 22.2 67.2 32.4 106.6 32.4 106 0 192-84.2 192-192 0-24.4-4.6-47.6-12.8-69.2 116.8-23.6 204.8-127 204.8-250.8 0-141.4-114.6-256-256-256h-736c-159.060 0-288 129-288 288 0 125.6 80.34 232.4 192.4 271.8z" />
<glyph unicode="&#xe9ba;" glyph-name="cloud-arrow-down" horiz-adv-x="1280" d="M288 0c-159.060 0-288 129-288 288 0 125.6 80.34 232.4 192.4 271.8-0.26 5.4-0.4 10.8-0.4 16.2 0 176.8 143.2 320 320 320 118.6 0 222-64.5 277.4-160.4 30.4 22.2 67.2 32.4 106.6 32.4 106 0 192-84.2 192-192 0-24.4-4.6-47.6-12.8-69.2 116.8-23.6 204.8-127 204.8-250.8 0-141.4-114.6-256-256-256h-736zM606 175.8c18.8-20.4 49.2-20.4 66.2 0l160 160c20.4 17 20.4 47.4 0 66.2-17 18.6-47.4 18.6-66.2 0l-78-78.2v268.2c0 26.6-21.4 48-48 48s-48-21.4-48-48v-268.2l-79.8 78.2c-17 18.6-47.4 18.6-66.2 0-18.6-18.8-18.6-49.2 0-66.2l160-160z" />
<glyph unicode="&#xe9bb;" glyph-name="cloud-arrow-up" horiz-adv-x="1280" d="M288 0c-159.060 0-288 129-288 288 0 125.6 80.34 232.4 192.4 271.8-0.26 5.4-0.4 10.8-0.4 16.2 0 176.8 143.2 320 320 320 118.6 0 222-64.5 277.4-160.4 30.4 22.2 67.2 32.4 106.6 32.4 106 0 192-84.2 192-192 0-24.4-4.6-47.6-12.8-69.2 116.8-23.6 204.8-127 204.8-250.8 0-141.4-114.6-256-256-256h-736zM446 434c-18.6-18.8-18.6-49.2 0-66.2 18.8-20.4 49.2-20.4 66.2 0l79.8 76.4v-268.2c0-26.6 21.4-48 48-48s48 21.4 48 48v268.2l78-76.4c18.8-20.4 49.2-20.4 66.2 0 20.4 17 20.4 47.4 0 66.2l-160 160c-17 18.6-47.4 18.6-66.2 0l-160-160z" />
<glyph unicode="&#xe9bc;" glyph-name="code" horiz-adv-x="1280" d="M829.6 878.42l-256-896.020c-9.8-34-45.2-53.6-79.2-44-34 9.8-53.6 45.2-44 79.2l256 895.98c9.8 33.988 45.2 53.668 79.2 43.956 34-9.71 53.6-45.136 44-79.116v0zM1037.2 717.2l224-224c25-25 25-65.4 0-90.4l-224-224c-25-25-65.4-25-90.4 0s-25 65.4 0 90.4l178.6 178.8-178.6 178.8c-25 25-25 65.4 0 90.4s65.4 25 90.4 0v0zM333.2 626.8l-178.7-178.8 178.7-178.8c25-25 25-65.4 0-90.4s-65.4-25-90.4 0l-224.056 224c-24.992 25-24.992 65.4 0 90.4l224.056 224c25 25 65.4 25 90.4 0s25-65.4 0-90.4v0z" />
<glyph unicode="&#xe9bd;" glyph-name="code-branch" horiz-adv-x="896" d="M320 800c0-65.6-39.4-120.2-96-146.6v-175.6c37.6 21.8 81.4 34.2 128 34.2h192c70.6 0 128 57.4 128 128v13.4c-56.6 26.4-96 81-96 146.6 0 88.36 71.6 160 160 160s160-71.64 160-160c0-65.6-39.4-120.2-96-146.6v-13.4c0-141.4-114.6-256-256-256h-192c-70.6 0-128-57.4-128-128v-13.4c56.6-24.6 96-81 96-146.6 0-88.4-71.6-160-160-160-88.36 0-160 71.6-160 160 0 65.6 39.5 122 96 146.6v410.8c-56.5 26.4-96 81-96 146.6 0 88.36 71.64 160 160 160 88.4 0 160-71.64 160-160v0zM160 752c26.5 0 48 21.5 48 48s-21.5 48-48 48c-26.5 0-48-21.5-48-48s21.5-48 48-48zM736 848c-26.6 0-48-21.5-48-48s21.4-48 48-48c26.6 0 48 21.5 48 48s-21.4 48-48 48zM160 48c26.5 0 48 21.4 48 48s-21.5 48-48 48c-26.5 0-48-21.4-48-48s21.5-48 48-48z" />
<glyph unicode="&#xe9be;" glyph-name="code-commit" horiz-adv-x="1280" d="M953.6 384c-31.4-146-158.8-256-313.6-256s-284 110-313.6 256h-262.4c-35.34 0-64 28.6-64 64s28.66 64 64 64h262.4c29.6 147.8 158.8 256 313.6 256s282.2-108.2 313.6-256h262.4c35.4 0 64-28.6 64-64s-28.6-64-64-64h-262.4zM640 288c88.4 0 160 71.6 160 160s-71.6 160-160 160c-88.4 0-160-71.6-160-160s71.6-160 160-160z" />
<glyph unicode="&#xe9bf;" glyph-name="code-compare" d="M640-16c0-19-11.2-36.2-28.4-43.8-17.4-7.8-39.4-4.6-51.8 8.2l-160 144c-10 9-15.8 22-15.8 35.6s5.8 26.6 15.8 35.6l160 144c12.4 12.8 34.4 16 51.8 8.2 17.2-7.6 28.4-24.8 28.4-43.8v-80h32c70.6 0 128 57.4 128 128v333.4c-56.6 26.4-96 81-96 146.6 0 88.36 71.6 160 160 160s160-71.64 160-160c0-65.6-39.4-120.2-96-146.6v-333.4c0-141.4-114.6-256-256-256h-32v-80zM912 801.8c0 24.72-21.4 48-48 48s-48-23.28-48-48c0-28.3 21.4-48 48-48s48 19.7 48 48zM384 912c0 18.96 11.2 36.136 28.4 43.848 17.4 7.712 37.6 4.51 51.8-8.17l160-143.998c10-9.1 15.8-22.080 15.8-35.68s-5.8-26.6-15.8-35.6l-160-144c-14.2-12.8-34.4-16-51.8-8.2-17.2 7.6-28.4 24.8-28.4 43.8v80h-32c-70.6 0-128-57.4-128-128v-333.4c56.6-24.6 96-81 96-146.6 0-88.4-71.6-160-160-160-88.36 0-160 71.6-160 160 0 65.6 39.5 122 96 146.6v333.4c0 141.4 114.6 256 256 256h32v80zM112 96c0-26.6 21.5-48 48-48s48 21.4 48 48c0 26.6-21.5 48-48 48s-48-21.4-48-48z" />
<glyph unicode="&#xe9c0;" glyph-name="code-fork" horiz-adv-x="896" d="M320 800c0-65.6-39.4-120.2-96-146.6v-77.4c0-35.4 28.6-64 64-64h320c35.4 0 64 28.6 64 64v77.4c-56.6 26.4-96 81-96 146.6 0 88.36 71.6 160 160 160s160-71.64 160-160c0-65.6-39.4-120.2-96-146.6v-77.4c0-106-86-192-192-192h-96v-141.4c56.6-24.6 96-81 96-146.6 0-88.4-71.6-160-160-160s-160 71.6-160 160c0 65.6 39.4 122 96 146.6v141.4h-96c-106.040 0-192 86-192 192v77.4c-56.5 26.4-96 81-96 146.6 0 88.36 71.64 160 160 160 88.4 0 160-71.64 160-160v0zM160 752c26.5 0 48 21.5 48 48s-21.5 48-48 48c-26.5 0-48-21.5-48-48s21.5-48 48-48zM736 752c26.6 0 48 21.5 48 48s-21.4 48-48 48c-26.6 0-48-21.5-48-48s21.4-48 48-48zM448 144c-26.6 0-48-21.4-48-48s21.4-48 48-48c26.6 0 48 21.4 48 48s-21.4 48-48 48z" />
<glyph unicode="&#xe9c1;" glyph-name="code-merge" horiz-adv-x="896" d="M416 481.8h173.4c24.6 54.8 81 96 146.6 96 88.4 0 160-73.4 160-160 0-90.2-71.6-161.8-160-161.8-65.6 0-122 39.4-146.6 97.8h-173.4c-73.8 0-138.6 22-192 62.2v-173.4c56.6-24.6 96-81 96-146.6 0-88.4-71.6-160-160-160-88.36 0-160 71.6-160 160 0 65.6 39.5 122 96 146.6v410.8c-56.5 26.4-96 81-96 146.6 0 88.36 71.64 160 160 160 88.4 0 160-71.64 160-160 0-65.2-39-121.4-95.2-146.4 9.2-97.4 91.4-173.6 191.2-173.6v1.8zM160 753.8c26.5 0 48 19.7 48 48 0 24.72-21.5 48-48 48s-48-23.28-48-48c0-28.3 21.5-48 48-48zM160 48c26.5 0 48 21.4 48 48s-21.5 48-48 48c-26.5 0-48-21.4-48-48s21.5-48 48-48zM736 465.8c-26.6 0-48-23.2-48-48 0-28.4 21.4-48 48-48s48 19.6 48 48c0 24.8-21.4 48-48 48z" />
<glyph unicode="&#xe9c2;" glyph-name="code-pull-request" d="M611.6 955.848c17.2-7.712 28.4-24.888 28.4-43.848v-80h32c141.4 0 256-114.6 256-256v-333.4c56.6-24.6 96-81 96-146.6 0-88.4-71.6-160-160-160s-160 71.6-160 160c0 65.6 39.4 122 96 146.6v333.4c0 70.6-57.4 128-128 128h-32v-80c0-19-11.2-36.2-28.4-43.8-17.4-7.8-39.4-4.6-51.8 8.2l-160 144c-10 9-15.8 22-15.8 35.6s5.8 26.58 15.8 35.68l160 143.998c12.4 12.68 34.4 15.88 51.8 8.168v0.002zM864 48c26.6 0 48 21.4 48 48s-21.4 48-48 48c-26.6 0-48-21.4-48-48s21.4-48 48-48zM224 242.6c56.6-24.6 96-81 96-146.6 0-88.4-71.6-160-160-160-88.36 0-160 71.6-160 160 0 65.6 39.5 122 96 146.6v410.8c-56.5 26.4-96 81-96 146.6 0 88.36 71.64 159.999 160 159.999 88.4 0 160-71.639 160-159.999 0-65.6-39.4-120.2-96-146.6v-410.8zM160 848c-26.5 0-48-21.5-48-48s21.5-48 48-48c26.5 0 48 21.5 48 48s-21.5 48-48 48zM160 144c-26.5 0-48-21.4-48-48s21.5-48 48-48c26.5 0 48 21.4 48 48s-21.5 48-48 48z" />
<glyph unicode="&#xe9c3;" glyph-name="compress" horiz-adv-x="896" d="M256 320h-192c-35.38 0-64-28.62-64-64s28.62-64 64-64h128v-128c0-35.38 28.62-64 64-64s64 28.62 64 64v192c0 35.4-28.6 64-64 64zM832 320h-192c-35.38 0-64-28.62-64-64v-192c0-35.38 28.62-64 64-64s64 28.62 64 64v128h128c35.38 0 64 28.62 64 64s-28.6 64-64 64zM640 576h192c35.38 0 64 28.62 64 64s-28.62 64-64 64h-128v128c0 35.38-28.62 64-64 64s-64-28.62-64-64v-192c0-35.4 28.6-64 64-64zM256 896c-35.4 0-64-28.62-64-64v-128h-128c-35.38 0-64-28.6-64-64s28.62-64 64-64h192c35.38 0 64 28.62 64 64v192c0 35.38-28.6 64-64 64z" />
<glyph unicode="&#xe9c4;" glyph-name="cookie" d="M989 450.4l-22.74 142.96c-8.204 51.8-32.58 99.6-69.6 136.64l-102.66 102.66c-37.040 37.040-84.6 61.4-136.4 69.6l-143.8 22.68c-51.4 8.22-104.4-0.22-150.8-23.9l-129.6-66.1c-46.94-23.66-84.68-61.64-108.58-108.34l-65.8-129c-23.68-46.88-32.16-100.080-23.96-151.88l22.74-142.96c8.202-51.8 32.58-99.54 69.6-136.82l102.66-102.66c37.040-36.8 84.6-61.22 136.4-69.44l143.68-22.74c51.56-8.204 104.54 0.235 150.94 23.9l129.6 66.1c46.64 23.68 84.6 61.64 108.52 108.28l65.62 129.14c23.98 46.88 32.38 99.88 24.18 151.88zM352 225.8c-35.24 0-62.2 28.74-62.2 62.2 0 35.24 28.74 62.2 62.2 62.2s62.2-28.74 62.2-62.2c1.8-35.2-27-62.2-62.2-62.2zM416 544c-35.24 0-62.2 28.74-62.2 62.2s28.76 62.2 62.2 62.2c35.24 0 62.2-28.74 62.2-62.2s-27-62.2-62.2-62.2zM736 289.8c-35.24 0-62.2 28.74-62.2 62.2 0 35.24 28.74 62.2 62.2 62.2s62.2-28.74 62.2-62.2c1.8-35.2-27-62.2-62.2-62.2z" />
<glyph unicode="&#xe9c5;" glyph-name="cookie-bite" d="M989.2 448.2c-131.26 1.641-237.2 108.28-237.2 239.8-131.48 0-238.2 105.94-239.6 237.2-51.32 7.734-103.6-0.469-149.54-24.14l-129.46-65.88c-46.7-23.9-84.68-61.88-108.58-108.58l-65.62-129c-23.9-46.88-32.34-99.84-24.14-151.88l22.74-142.96c8.204-51.8 32.58-99.6 69.62-136.64l102.72-102.78c37.060-37.14 84.46-61.34 136.26-69.54l143.68-22.74c51.8-8.202 104.54 0.234 151.18 23.9l129.62 66.1c46.64 23.68 84.62 61.64 108.28 108.28l65.86 129.14c23.58 46.12 31.98 98.72 24.18 149.72zM352 225.8c-35.24 0-64 28.74-64 62.2s28.76 62.2 64 62.2 64-28.74 64-62.2-28.8-62.2-64-62.2zM416 544c-35.24 0-64 28.74-64 62.2s28.76 62.2 64 62.2 64-28.74 64-62.2-28.8-62.2-64-62.2zM736 289.8c-35.24 0-64 28.74-64 62.2s28.76 62.2 64 62.2 64-28.74 64-62.2-28.8-62.2-64-62.2z" />
<glyph unicode="&#xe9c6;" glyph-name="copy" d="M768 768v192h-224c-53.020 0-96-42.98-96-96v-576c0-53.020 42.98-96 96-96h384c53.020 0 96 42.98 96 96v416h-190.2c-37 0-65.8 28.8-65.8 64zM832 960v-192h192l-192 192zM384 256v448h-288c-53.020 0-96-42.98-96-96v-576c0-53.020 42.98-96 96-96h384c53.020 0 96 42.98 96 96v96h-64c-70.6 0-128 57.4-128 128z" />
<glyph unicode="&#xe9c7;" glyph-name="crop1" d="M896 192h64c35.4 0 64-28.6 64-64s-28.6-64-64-64h-64v-64c0-35.4-28.6-64-64-64s-64 28.6-64 64v613.4l-421.4-421.4h357.4v-128h-448c-70.7 0-128 57.4-128 128v512h-64c-35.34 0-64 28.6-64 64 0 35.34 28.66 64 64 64h64v64c0 35.34 28.66 64 64 64 35.4 0 64-28.66 64-64v-613.4l421.4 421.4h-357.4v128h485.4l109.4 109.256c25 24.992 65.4 24.992 90.4 0 25-24.996 25-65.516 0-90.516l-109.2-109.34v-549.4z" />
<glyph unicode="&#xe9c8;" glyph-name="crop-simple" d="M256 192h448v-128h-448c-70.7 0-128 57.4-128 128v512h-64c-35.34 0-64 28.6-64 64 0 35.34 28.66 64 64 64h64v64c0 35.34 28.66 64 64 64 35.4 0 64-28.66 64-64v-704zM768 704h-448v128h448c70.6 0 128-57.3 128-128v-512h64c35.4 0 64-28.6 64-64s-28.6-64-64-64h-64v-64c0-35.4-28.6-64-64-64s-64 28.6-64 64v704z" />
<glyph unicode="&#xe9c9;" glyph-name="crosshairs" d="M448 448c0 35.4 28.6 64 64 64s64-28.6 64-64c0-35.4-28.6-64-64-64s-64 28.6-64 64zM512 960c35.4 0 64-28.66 64-64v-20.7c187.4-27.84 335.4-175.9 363.2-363.3h20.8c35.4 0 64-28.6 64-64s-28.6-64-64-64h-20.8c-27.8-187.4-175.8-335.4-363.2-363.2v-20.8c0-35.4-28.6-64-64-64s-64 28.6-64 64v20.8c-187.4 27.8-335.46 175.8-363.3 363.2h-20.7c-35.34 0-64 28.6-64 64s28.66 64 64 64h20.7c27.84 187.4 175.9 335.46 363.3 363.3v20.7c0 35.34 28.6 64 64 64v0zM448 150.8v41.2c0 35.4 28.6 64 64 64s64-28.6 64-64v-41.2c116.6 25 208.2 116.6 233.2 233.2h-41.2c-35.4 0-64 28.6-64 64s28.6 64 64 64h41.2c-25 116.6-116.6 208.2-233.2 233.2v-41.2c0-35.4-28.6-64-64-64s-64 28.6-64 64v41.2c-116.6-25-208.2-116.6-233.2-233.2h41.2c35.4 0 64-28.6 64-64s-28.6-64-64-64h-41.2c25-116.6 116.6-208.2 233.2-233.2z" />
<glyph unicode="&#xe9ca;" glyph-name="cube" d="M469 948.582c27.8 9.943 58.2 9.943 86 0l384-137.142c49.2-18.2 85-66.44 85-120.64v-485.6c0-54.2-35.8-102.4-85-120.6l-384-137.2c-27.8-10-58.2-10-86 0l-384.060 137.2c-50.94 18.2-84.94 66.4-84.94 120.6v485.6c0 54.2 34 102.44 84.94 120.64l384.060 137.142zM512 828.040l-347.32-124.040 347.32-124 347.4 124-347.4 124.040zM576 90.8l320 114.4v376l-320-114.4v-376z" />
<glyph unicode="&#xe9cb;" glyph-name="cubes" horiz-adv-x="1152" d="M344.2 879.68l192 72.8c25.6 9.698 54 9.698 79.6 0l192-72.8c43.4-16.5 72.2-58.18 72.2-104.72v-224.36c2.6-0.8 5.2-1.6 7.8-0.8l192-74.6c43.4-16.4 72.2-58.2 72.2-104.6v-238.4c0-44.4-26.2-84.6-67-102.4l-192-84.4c-28.6-12.8-61.4-12.8-90 0l-227 99.6-227-99.6c-28.6-12.8-61.4-12.8-90 0l-192.080 84.4c-40.66 17.8-66.92 58-66.92 102.4v238.4c0 46.4 28.78 88.2 72.3 104.6l191.9 74.6c2.6-0.8 5.2 0 7.8 0.8v224.36c0 46.54 28.8 88.22 72.2 104.72v0zM581.6 862.72c-3.6 1.38-9.4 1.38-11.2 0l-156.8-59.42 160.6-62.3 164.2 62.3-156.8 59.42zM784 538.8v179.2l-164.8-63.2v-178.4l164.8 62.4zM309.6 458.2c-3.6 1.4-9.4 1.4-11.2 0l-156.78-59.4 162.38-62.2 162.4 62.2-156.8 59.4zM347.2 49.4l164.8 72.4v191.8l-164.8-63.2v-201zM685.6 398.8l162.4-62.2 162.4 62.2-156.8 59.4c-3.6 1.4-9.4 1.4-11.2 0l-156.8-59.4zM1056 132.2v181.4l-164.8-63.2v-201l155.2 68.2c5.8 2.6 9.6 8.2 9.6 14.6v0z" />
<glyph unicode="&#xe9cc;" glyph-name="cubes-stacked" horiz-adv-x="896" d="M384 832c0 35.34 28.6 64 64 64h128c35.4 0 64-28.66 64-64v-128c0-35.4-28.6-64-64-64h-128c-35.4 0-64 28.6-64 64v128zM276.2 611.8c30.6 16 68 5.4 87.4-25.2l64-110.8c17.6-30.6 7.2-68-23.4-87.4l-110.8-64c-30.6-17.6-69.8-7.2-89.2 23.4l-62.28 110.8c-17.68 30.6-7.18 69.8 23.42 89.2l110.86 64zM704 576c35.4 0 64-28.6 64-64v-128c0-35.4-28.6-64-64-64h-128c-35.4 0-64 28.6-64 64v128c0 35.4 28.6 64 64 64h128zM832 256c35.4 0 64-28.6 64-64v-128c0-35.4-28.6-64-64-64h-128c-35.4 0-64 28.6-64 64v128c0 35.4 28.6 64 64 64h128zM320 192c0 35.4 28.6 64 64 64h128c35.4 0 64-28.6 64-64v-128c0-35.4-28.6-64-64-64h-128c-35.4 0-64 28.6-64 64v128zM192 256c35.4 0 64-28.6 64-64v-128c0-35.4-28.6-64-64-64h-128c-35.34 0-64 28.6-64 64v128c0 35.4 28.66 64 64 64h128z" />
<glyph unicode="&#xe9cd;" glyph-name="d" horiz-adv-x="768" d="M320 895.98h-256c-35.34 0-64-28.66-64-64v-768c0-35.34 28.66-64 64-64l256 0.015c247 0 448 201 448 448s-201 447.985-448 447.985zM320 128h-192v640h192c176.44 0 320-143.56 320-318.2s-143.6-321.8-320-321.8z" />
<glyph unicode="&#xe9ce;" glyph-name="database" horiz-adv-x="896" d="M896 800v-96c0-88.4-200.6-160-448-160s-448 71.6-448 160v96c0 88.36 200.6 160 448 160s448-71.64 448-160zM786.4 530.6c39.8 14.8 79.8 33.8 109.6 57.2v-203.8c0-88.4-200.6-160-448-160s-448 71.6-448 160v203.8c29.86-23.4 68.040-42.4 109.7-57.2 89.62-32 209.3-50.6 338.3-50.6s248.6 18.6 338.4 50.6v0zM109.7 210.6c89.62-32 209.3-50.6 338.3-50.6s248.6 18.6 338.4 50.6c39.8 14.8 79.8 33.8 109.6 57.2v-171.8c0-88.4-200.6-160-448-160s-448 71.6-448 160v171.8c29.86-23.4 68.040-42.4 109.7-57.2z" />
<glyph unicode="&#xe9cf;" glyph-name="delete-left" horiz-adv-x="1152" d="M1152 192c0-70.6-57.4-128-128-128h-613.4c-34 0-66.6 13.4-90.6 37.4l-301.256 301.4c-12.002 12-18.744 28.2-18.744 45.2s6.744 33.2 18.744 45.2l301.256 301.3c24 24.020 56.6 37.5 90.6 37.5h613.4c70.6 0 128-57.3 128-128v-512zM542 543.8l94.2-95.8-94.2-94c-18.6-18.8-18.6-49.2 0-66.2 18.8-20.4 49.2-20.4 66.2 0l95.8 92.4 94-92.4c18.8-20.4 49.2-20.4 66.2 0 20.4 17 20.4 47.4 0 66.2l-92.4 94 92.4 95.8c20.4 17 20.4 47.4 0 66.2-17 18.6-47.4 18.6-66.2 0l-94-94.2-95.8 94.2c-17 18.6-47.4 18.6-66.2 0-18.6-18.8-18.6-49.2 0-66.2v0z" />
<glyph unicode="&#xe9d0;" glyph-name="desktop" horiz-adv-x="1152" d="M1056 960h-960c-53 0-96-43-96-96v-640c0-53 43-96 96-96h384l-32-96h-144c-26.4 0-48-21.6-48-48s21.6-48 48-48h544c26.5 0 48 21.5 48 48s-21.5 48-48 48h-144l-32 96h384c53 0 96 43 96 96v640c0 53-43 96-96 96zM1024 384h-896v448h896v-448z" />
<glyph unicode="&#xe9d1;" glyph-name="diagram-next" d="M1024 640c0-70.6-57.4-128-128-128h-336v-128h92.2c42.6 0 64-51.8 33.8-80.2l-141.8-141.8c-17-18.8-47.4-18.8-66.2 0l-141.8 141.8c-28.4 28.4-7 80.2 35.6 80.2h92.2v128h-336c-70.7 0-128 57.4-128 128v128c0 70.7 57.3 128 128 128h768c70.6 0 128-57.3 128-128v-128zM625.2 128h270.8v128h-142.8l15 16.8c33.8 32 41 74.4 29.8 111.2h98c70.6 0 128-57.4 128-128v-128c0-70.6-57.4-128-128-128h-768c-70.7 0-128 57.4-128 128v128c0 70.6 57.3 128 128 128h96.2c-9.4-36.8-4-79.2 29.8-111.2l16.8-16.8h-142.8v-128h270.8l34-32.2c43.8-45.4 114.6-45.4 158.4 0l34 32.2z" />
<glyph unicode="&#xe9d2;" glyph-name="diagram-predecessor" d="M128 0c-70.7 0-128 57.4-128 128v128c0 70.6 57.3 128 128 128h768c70.6 0 128-57.4 128-128v-128c0-70.6-57.4-128-128-128h-768zM896 128v128h-768v-128h768zM576 640c0-70.6-57.4-128-128-128h-320c-70.7 0-128 57.4-128 128v128c0 70.7 57.3 128 128 128h608c88.4 0 160-71.64 160-160v-32h76.2c42.6 0 64-51.8 33.8-80.2l-141.8-141.8c-17-18.8-47.4-18.8-66.2 0l-141.8 141.8c-28.4 28.4-7 80.2 35.6 80.2h76.2v32c0 17.6-14.4 32-32 32h-160v-128z" />
<glyph unicode="&#xe9d3;" glyph-name="diagram-project" horiz-adv-x="1152" d="M0 800c0 53.020 42.98 96 96 96h192c53 0 96-42.98 96-96v-32h384v32c0 53.020 43 96 96 96h192c53 0 96-42.98 96-96v-192c0-53-43-96-96-96h-192c-53 0-96 43-96 96v32h-384v-32c0-3.4-0.2-6.8-0.6-8.2l160.6-215.8h192c53 0 96-43 96-96v-192c0-53-43-96-96-96h-192c-53 0-96 43-96 96v192c0 3.4 0.2 6.8 0.6 10l-160.6 214h-192c-53.020 0-96 43-96 96v192z" />
<glyph unicode="&#xe9d4;" glyph-name="diamond" d="M1000.6 504.6c31.2-31.2 31.2-82 0-113.2l-432-432c-31.2-31.2-82-31.2-113.2 0l-431.96 432c-31.25 31.2-31.25 82 0 113.2l431.96 431.96c31.2 31.25 82 31.25 113.2 0l432-431.96z" />
<glyph unicode="&#xe9d5;" glyph-name="dice-d6" horiz-adv-x="896" d="M15.988 653c2.652 0 5.374-0.702 7.95-2.238l392.062-233.762v-447.6c0-19.482-15.312-33.42-32.020-33.42-5.376 0-10.898 1.442-16.1 4.606l-304.4 184.94c-39.22 23.874-63.48 67.874-63.48 115.474v395.4c0 11.4 7.634 16.6 15.988 16.6zM852.4 725.6c0-5.65-2.704-11.294-8.102-14.496l-396.298-236.304-396.24 236.4c-5.38 3.2-8.060 10.6-8.060 14.4 0 5.6 2.64 11.206 7.93 14.442l330.2 201.8c21.57 12.112 43.97 18.158 66.17 18.158s44.54-6.046 64.44-18.14l330.2-201.8c6.96-3.26 9.76-8.86 9.76-14.46zM880 653c8.4 0 16-5.2 16-16.6v-395.4c0-47.5-24.24-91.5-63.56-115.38l-304.4-185c-5.040-3.22-10.64-4.62-16.040-4.62-16.6 0-32 14-32 33.4v447.6l392 233.8c2.6 1.6 5.4 2.2 8 2.2z" />
<glyph unicode="&#xe9d6;" glyph-name="display" horiz-adv-x="1152" d="M1056 960h-960c-53 0-96-43-96-96v-640c0-53 43-96 96-96h384l-32-96h-144c-26.4 0-48-21.6-48-48s21.6-48 48-48h544c26.5 0 48 21.5 48 48s-21.5 48-48 48h-144l-32 96h384c53 0 96 43 96 96v640c0 53-43 96-96 96zM1024 256h-896v576h896v-576z" />
<glyph unicode="&#xe9d7;" glyph-name="down-left-and-up-right-to-center" d="M430.2 416h-272c-25.88 0-49.26-15.594-59.12-39.5-8.14-23.9-2.64-51.5 15.66-69.7l60.12-60.12-156.12-156.14c-25-25-25-65.5-0.002-90.5l45.24-45.24c25-25 65.52-25 90.52-0.003l156.12 156.14 60.12-60.12c12.25-12.25 28.62-18.734 45.26-18.734 8.25 0 16.558 1.578 24.5 4.86 23.94 9.906 39.5 33.24 39.5 59.12v271.937c-1.798 26.6-21.398 48-49.798 48zM592 480h272c25.88 0 49.26 15.594 59.12 39.5 9.938 23.94 4.438 51.44-13.876 69.74l-60.12 60.12 156.12 156.14c25 25 25 65.52 0 90.52l-45.24 45.24c-25 25-65.52 25-90.52 0.001l-156.12-156.14-60.12 60.12c-18.312 18.282-45.74 23.68-69.74 13.874-23.94-9.906-39.5-33.24-39.5-59.12v-270.2c-0.004-28.395 21.396-49.795 47.996-49.795z" />
<glyph unicode="&#xe9d8;" glyph-name="download" d="M960 256h-267l-90.5-90.5c-24.1-24.1-56.3-37.5-90.5-37.5s-66.32 13.312-90.5 37.5l-90.5 90.5h-267c-35.34 0-64-28.66-64-64v-192c0-35.34 28.66-64 64-64h896c35.34 0 64 28.66 64 64v192c0 35.4-28.6 64-64 64zM864 48c-26.4 0-48 21.6-48 48s21.6 48 48 48 48-21.6 48-48c0-26.4-21.6-48-48-48zM466.8 210.8c12.4-12.6 28.8-18.8 45.2-18.8s32.76 6.25 45.24 18.75l256 256c24.98 25 24.98 65.5 0 90.5-25 25-65.52 25-90.5 0l-146.74-146.85v485.6c0 35.34-28.66 64-64 64-35.4 0-64-28.66-64-64v-485.6l-146.8 146.8c-24.98 25-65.5 25-90.5 0-24.98-25-24.98-65.5 0-90.5l256.1-255.9z" />
<glyph unicode="&#xe9d9;" glyph-name="down-long" horiz-adv-x="640" d="M563.2 175.4l-208-224.2c-18.996-20.48-51.38-20.48-70.38 0l-208 224.2c-12.968 13.984-16.438 34.36-8.808 51.88 7.622 17.516 24.9 28.84 42.2 28.84h145.788v639.88c0 35.38 28.66 64 64 64s64-28.62 64-64v-639.8h144c19.094 0 36.38-11.32 44-28.84 7.6-17.56 4.2-37.96-8.8-51.96z" />
<glyph unicode="&#xe9da;" glyph-name="draw-polygon" horiz-adv-x="896" d="M768.6 256c70.4-0.4 127.4-57.4 127.4-128s-57.4-128-128-128c-47.4 0-88.8 25.8-110.8 64h-418.4c-22-38.2-63.42-64-110.8-64-70.7 0-128 57.4-128 128 0 47.4 25.74 88.8 64 110.8v418.4c-38.26 22-64 63.4-64 110.8 0 70.7 57.3 128 128 128 47.38 0 88.8-25.74 110.8-64h418.4c22 38.26 63.4 64 110.8 64 70.6 0 128-57.3 128-128 0-70.6-57-127.6-127.4-126.2l-77.6-137.6c8.4-17 13-36 13-56.2s-4.6-39.2-13-56.2l77.6-135.8zM192 238.8c19.4-11.2 35.6-27.4 46.8-46.8h418.4c0 0.2 0.2 0.4 0.2 0.6l-73 127.6c-2.8 1.6-5.6-0.2-8.4-0.2-70.6 0-128 57.4-128 128s57.4 128 128 128c2.8 0 5.6 0 8.4-0.2l73 127.6-0.2 0.6h-418.4c-11.2-19.4-27.4-35.6-46.8-46.8v-418.4z" />
<glyph unicode="&#xe9db;" glyph-name="earth-americas" d="M1024 448c0-282.8-229.2-512-512-512s-512 229.2-512 512c0 282.8 229.2 512 512 512s512-229.2 512-512zM115.42 575.8l18.72-34.6c16.58-29 43.84-50.4 76.060-59.6l114-33c36.2-9.8 59.8-41.2 59.8-77v-79.8c0-22 12.4-42 32-50 19.6-11.6 32-31.6 32-53.6v-78c0-31.2 29.8-53.6 59.8-45 32.4 9.2 57.2 36.6 65.4 67.4l5.6 22.4c8.4 33.8 30.4 62.8 60.6 80.2l16.2 9.2c30 17 48.4 48.8 48.4 83.4v16.4c0 25.6-10.2 50-28.2 68l-7.6 7.6c-18 18-42.6 30-68 30h-88c-20.4 0-42.4 4-61.8 15l-69 39.6c-8.6 4.8-15.2 12.8-18.2 22.2-6.4 19.2 2.2 40 20.2 49.2l12 5.8c13.2 6.6 28.4 7.8 40.8 3l48.2-15.4c16.2-5.4 34.2 0.8 43.8 15 9.4 14.2 8.4 32.8-2.4 45.8l-27.2 32.4c-20 24-19.8 59 0.6 82.6l31.4 36.76c17.6 20.54 20.4 49.92 7 73.4l-4.8 8.32c-8.6 0.34-13.8 0.52-20.8 0.52-185.8 0-343.2-121.8-396.58-288.2v0zM875.2 651l-51.2-20.6c-31.4-12.6-47.6-47.4-37-79.6l33.8-101.4c7-20.8 24-36.6 45.2-42l58.4-14.4c2.4 18 3.6 36.4 3.6 55 0 73.6-19.2 142.8-52.8 203v0z" />
<glyph unicode="&#xe9dc;" glyph-name="ellipsis" horiz-adv-x="896" d="M240 448c0-61.8-50.14-112-112-112s-112 50.2-112 112c0 61.8 50.14 112 112 112s112-50.2 112-112zM560 448c0-61.8-50.2-112-112-112s-112 50.2-112 112c0 61.8 50.2 112 112 112s112-50.2 112-112zM656 448c0 61.8 50.2 112 112 112s112-50.2 112-112c0-61.8-50.2-112-112-112s-112 50.2-112 112z" />
<glyph unicode="&#xe9dd;" glyph-name="ellipsis-vertical" horiz-adv-x="256" d="M128 240c61.86 0 112-50.2 112-112s-50.14-112-112-112c-61.86 0-112 50.2-112 112s50.14 112 112 112zM128 560c61.86 0 112-50.2 112-112s-50.14-112-112-112c-61.86 0-112 50.2-112 112s50.14 112 112 112zM128 656c-61.86 0-112 50.2-112 112 0 61.86 50.14 112 112 112s112-50.14 112-112c0-61.8-50.14-112-112-112z" />
<glyph unicode="&#xe9de;" glyph-name="envelope" d="M928 832c53 0 96-42.98 96-96 0-30.2-14.2-58.6-38.4-76.8l-435.2-326.4c-22.8-17-54-17-76.8 0l-435.2 326.4c-24.174 18.2-38.4 46.6-38.4 76.8 0 53.020 42.98 96 96 96h832zM435.2 281.6c45.6-34.2 108-34.2 153.6 0l435.2 326.4v-416c0-70.6-57.4-128-128-128h-768c-70.7 0-128 57.4-128 128v416l435.2-326.4z" />
<glyph unicode="&#xe9df;" glyph-name="envelope-circle-check" horiz-adv-x="1280" d="M928 832c53 0 96-42.98 96-96 0-30.2-14.2-58.6-38.4-76.8l-27.8-20.8c-133.2-12.8-244.8-100-292.6-219.6l-114.8-86c-22.8-17-54-17-76.8 0l-435.2 326.4c-24.174 18.2-38.4 46.6-38.4 76.8 0 53.020 42.98 96 96 96h832zM588.8 281.6l52.8 39.6c-1-11-1.6-22-1.6-33.2 0-85 30.2-163.2 80.4-224h-592.4c-70.7 0-128 57.4-128 128v416l435.2-326.4c45.6-34.2 108-34.2 153.6 0zM1280 288c0-159-129-288-288-288s-288 129-288 288c0 159 129 288 288 288s288-129 288-288zM1081.4 374.6l-121.4-121.4-57.4 57.4c-12.4 12.6-32.8 12.6-45.2 0-12.6-12.4-12.6-32.8 0-45.2l80-80c12.4-12.6 32.8-12.6 45.2 0l144 144c12.6 12.4 12.6 32.8 0 45.2-12.4 12.6-32.8 12.6-45.2 0v0z" />
<glyph unicode="&#xe9e0;" glyph-name="envelope-open" d="M987.2 634c-49.76 39.24-91 70.74-328.6 243.2-33.2 24.38-99.2 82.8-145.8 82.8h-1.6c-46.6 0-112.6-58.42-146-82.76-237.6-172.5-278.8-202.2-328.6-243.2-23.1-18.040-36.6-46.040-36.6-75.64v-526.4c0-53 42.98-96 96-96h832c53.020 0 96 42.98 96 94.2v528.2c0 29.6-13.4 57.6-36.8 75.6zM606.4 225c-28.2-22-61.4-33-94.4-33s-66.12 10.968-94.32 32.94l-289.68 225.26v92.8c42.32 33.18 92.96 71.32 312.8 231 6.36 4.656 13.782 10.374 21.96 16.706 11.040 8.414 32.84 25.354 49.24 35.614 16.414-10.262 38.28-27.2 49.22-35.68 8.18-6.332 15.602-12.054 22.3-16.956 218.28-158.684 269.68-197.084 312.48-230.684v-92.64l-289.6-225.36z" />
<glyph unicode="&#xe9e1;" glyph-name="equals" horiz-adv-x="896" d="M96 576h704c35.38 0 64 28.64 64 64s-28.62 62.2-64 62.2h-704c-35.38 0-64-28.62-64-62.2s28.62-64 64-64zM800 320h-704c-35.38 0-64-28.62-64-62.2s28.62-64 64-64h704c35.38 0 64 28.64 64 64s-28.6 62.2-64 62.2z" />
<glyph unicode="&#xe9e2;" glyph-name="eraser" d="M960 128c35.4 0 64-28.6 64-64s-28.6-64-64-64h-658.8c-33.8 0-66.4 13.4-90.4 37.4l-160.060 160c-49.983 50-49.983 131.2 0 181.2l466.66 466.66c50 49.98 131.2 49.98 181.2 0l274.6-274.66c50-50 50-131.2 0-181.2l-261.4-261.4h248.2zM530.8 128l134.6 134.6-274.8 274.8-249.34-249.4 159.94-160h229.6z" />
<glyph unicode="&#xe9e3;" glyph-name="expand" horiz-adv-x="896" d="M256 896h-192c-35.38 0-64-28.62-64-64v-192c0-35.38 28.62-64 64-64s64 28.62 64 64v128h128c35.38 0 64 28.62 64 64s-28.6 64-64 64zM832 896h-192c-35.38 0-64-28.62-64-64s28.62-64 64-64h128v-128c0-35.38 28.62-64 64-64s64 28.62 64 64v192c0 35.38-28.6 64-64 64zM256 128h-128v128c0 35.38-28.62 64-64 64s-64-28.62-64-64v-192c0-35.38 28.62-64 64-64h192c35.38 0 64 28.62 64 64s-28.6 64-64 64zM832 320c-35.38 0-64-28.62-64-64v-128h-128c-35.38 0-64-28.62-64-64s28.62-64 64-64h192c35.38 0 64 28.62 64 64v192c0 35.4-28.6 64-64 64z" />
<glyph unicode="&#xe9e4;" glyph-name="eye" horiz-adv-x="1152" d="M559.2 639.2c5.6 0.6 11.2 0.8 16.8 0.8 106 0 192-84.2 192-192 0-106-86-192-192-192-107.8 0-192 86-192 192 0 5.6 0.2 11.2 0.8 16.8 18.6-9 40.2-16.8 63.2-16.8 70.6 0 128 57.4 128 128 0 23-7.8 44.6-16.8 63.2zM961.2 734.8c93.6-86.8 156.2-189 185.8-262.2 6.6-15.8 6.6-33.4 0-49.2-29.6-71.4-92.2-173.6-185.8-262.2-94.2-87.6-223.6-161.2-385.2-161.2s-291 73.6-385.16 161.2c-93.6 88.6-156.16 190.8-185.918 262.2-6.563 15.8-6.563 33.4 0 49.2 29.758 73.2 92.318 175.4 185.918 262.2 94.16 87.52 223.56 161.2 385.16 161.2s291-73.68 385.2-161.2v0zM576 736c-159 0-288-129-288-288s129-288 288-288c159 0 288 129 288 288s-129 288-288 288z" />
<glyph unicode="&#xe9e5;" glyph-name="eye-dropper" d="M965.6 901.54c77.8-77.96 77.8-204.34 0-282.34l-203.2-203 18.8-19c25-25 25-65.4 0-90.4s-65.4-25-90.4 0l-320 320c-25 25-25 65.4 0 90.4s65.4 25 90.4 0l19-18.8 203 203.14c78 77.948 204.4 77.948 282.4 0v0zM110.86 313.4l241.34 241.4 90.6-90.6-241.4-241.4c-6.020-6-9.4-14-9.4-22.6v-72.2h72.2c8.6 0 16.6 3.4 22.6 9.4l241.4 241.4 90.6-90.6-241.4-241.4c-30-30-70.8-46.8-113.2-46.8h-84.82l-79.88-53.2c-25.38-17-59.18-13.6-80.754 8-21.572 21.6-24.918 55.4-7.996 80.8l53.25 79.8v84.8c0 42.4 16.86 83.2 46.86 113.2v0z" />
<glyph unicode="&#xe9e6;" glyph-name="eye-low-vision" horiz-adv-x="1280" d="M301.4 774.46c88.6 69 202.2 121.54 338.6 121.54 161.6 0 291-73.68 385.2-161.2 93.6-86.8 156.2-189 185.8-262.2 6.6-15.8 6.6-33.4 0-49.2-26.8-64.6-80.6-155.6-159.8-236.8l210.4-164.8c20.8-16.4 24.6-46.6 8.2-67.4s-46.6-24.6-67.4-8.2l-1184.008 928.020c-20.864 16.36-24.522 46.52-8.168 67.388 16.356 20.864 46.516 24.522 67.396 8.168l223.78-175.316zM446.2 661l180.6-141.6c8.4 17 13.2 36.2 13.2 58.4 0 21.2-7.8 42.8-16.8 61.4 5.6 0.6 11.2 2.6 16.8 2.6 106 0 192-86 192-192 0-29.2-5.8-55.2-17.8-78.8l79-60.4c22.2 40.8 34.8 87.6 34.8 139.2 0 157.2-129 288-288 288-74.6 0-142.8-30.2-193.8-76.8zM787.2 21.2l-677.9 531.4c15.9 27.2 34.86 55.8 56.88 84.4l726.22-572c-32.8-17.8-67.8-32.6-105.2-43.8v0zM68.92 423.4c-5.44 13-6.38 27.6-2.76 41l592.24-464c-6.2-0.2-12.2-0.4-18.4-0.4-161.6 0-291 73.6-385.2 161.2-93.56 88.6-156.12 190.8-185.88 262.2v0z" />
<glyph unicode="&#xe9e7;" glyph-name="eye-slash" horiz-adv-x="1280" d="M301.4 774.46c88.6 69 202.2 121.54 338.6 121.54 161.6 0 291-73.68 385.2-161.2 93.6-86.8 156.2-189 185.8-262.2 6.6-15.8 6.6-33.4 0-49.2-26.8-64.6-80.6-155.6-159.8-236.8l210.4-164.8c20.8-16.4 24.6-46.6 8.2-67.4s-46.6-24.6-67.4-8.2l-1184.008 928.020c-20.864 16.36-24.522 46.52-8.168 67.388 16.356 20.864 46.516 24.522 67.396 8.168l223.78-175.316zM446.2 661l180.6-141.6c8.4 17 13.2 36.2 13.2 58.4 0 21.2-7.8 42.8-16.8 61.4 5.6 0.6 11.2 2.6 16.8 2.6 106 0 192-86 192-192 0-29.2-5.8-55.2-17.8-78.8l79-60.4c22.2 40.8 34.8 87.6 34.8 139.2 0 157.2-129 288-288 288-74.6 0-142.8-30.2-193.8-76.8zM640 0c-161.6 0-291 73.6-385.2 161.2-93.56 88.6-156.12 190.8-185.88 262.2-6.56 15.8-6.56 33.4 0 49.2 19.080 45.8 51.66 105 97.26 164.4l188.62-148.6c-1.8-13.2-2.8-26.6-2.8-38.6 0-160.8 129-289.8 288-289.8 37.4 0 73.2 7.2 106 20.2l146.4-115.2c-72.6-39.2-156.8-65-252.4-65v0z" />
<glyph unicode="&#xe9e8;" glyph-name="f" horiz-adv-x="640" d="M640 831.98c0-35.34-28.66-64-64-64h-448v-256h320c35.34 0 64-28.64 64-62.2s-28.66-64-64-64h-320v-320c0-35.34-28.66-64-64-64s-64 28.66-64 64v768c0 33.54 28.66 62.2 64 62.2h512c35.4 0 64-28.66 64-64z" />
<glyph unicode="&#xe9e9;" glyph-name="feather" d="M966.8 471.6l-263-85.8h195.48c-19.748-21.24 7.5 6.25-92.48-93.74l-295.2-98.24h196.48c-149.98-146.24-389.2-141.24-493.6-108.2l-132.28-131.98c-18.748-18.748-49.2-18.748-67.96 0s-18.748 49.2 0 67.96l519 518.4c12.498 12.5 12.498 32.74 0 45.24-12.498 12.498-32.74 12.498-45.24 0l-356.8-356.4c-13.64 118.96 6.020 297.76 127 418.56l171.48 171.36c181.24 181.24 379.6 176.54 504.6 51.56 101.32-101 123.52-249.72 32.52-398.72z" />
<glyph unicode="&#xe9ea;" glyph-name="feather-pointed" d="M934.2 477.8l-232-93.8h188.68c-15.422-29.7-32.58-58.56-51.74-86.020l-265-105.98h171.3c-118.68-105.42-288.2-160.68-529-105.64l-136.26-136.26c-18.76-18.76-49.12-18.748-67.88 0-18.75 18.75-18.75 49.12 0 67.88l506.8 506.8c9.692 12.55 9.286 30.38-2.226 41.9-12.5 12.5-32.76 12.5-45.24 0l-337.2-337.2c-85.314 614.52 599.366 714.284 823.366 730.351 37.74 2.708 68.82-28.38 66.1-66.1-6.5-90.791-26.9-257.331-89.7-415.931z" />
<glyph unicode="&#xe9eb;" glyph-name="file" horiz-adv-x="768" d="M0 832c0 70.7 57.3 128 128 128h320v-256c0-35.4 28.6-64 64-64h256v-576c0-70.6-57.4-128-128-128h-512c-70.7 0-128 57.4-128 128v768zM512 704v256l256-256h-256z" />
</font>
</defs>
</svg>
